<svg width="258" height="250" viewBox="0 0 258 250" fill="none" xmlns="http://www.w3.org/2000/svg">
<path d="M159.545 115.975C157.826 117.747 160.013 120.529 162.141 119.276L162.832 118.869C163.874 118.255 165.217 118.637 165.781 119.707L166.332 120.752C167.472 122.916 170.764 121.747 170.284 119.348L170.011 117.985C169.78 116.834 170.529 115.715 171.681 115.489L172.817 115.267C175.231 114.795 175.036 111.278 172.583 111.076L171.766 111.009C170.539 110.908 169.656 109.786 169.847 108.569L169.974 107.759C170.356 105.328 166.985 104.309 165.956 106.545L165.473 107.596C164.983 108.662 163.719 109.126 162.654 108.631L161.393 108.044C159.176 107.012 157.264 109.936 159.098 111.554L159.984 112.336C160.891 113.136 160.945 114.532 160.103 115.4L159.545 115.975Z" fill="#FBD218"/>
<path d="M61.7458 85.276C59.7393 87.3444 62.2924 90.5906 64.7754 89.1281L65.5814 88.6533C66.7976 87.937 68.3658 88.3825 69.0237 89.6313L69.6664 90.851C70.9968 93.3761 74.8387 92.0116 74.2783 89.213L73.9596 87.6213C73.6907 86.2782 74.5649 84.9724 75.9092 84.7093L77.2341 84.4501C80.0522 83.8986 79.8238 79.7945 76.9618 79.5593L76.0085 79.4809C74.5759 79.3632 73.5453 78.0528 73.7685 76.6328L73.917 75.6879C74.3629 72.8511 70.4283 71.6619 69.2282 74.2707L68.664 75.4972C68.0915 76.7416 66.6165 77.2835 65.3746 76.7056L63.9028 76.0207C61.3151 74.8166 59.0836 78.2287 61.2241 80.1167L62.258 81.0287C63.3165 81.9625 63.3799 83.5914 62.3971 84.6046L61.7458 85.276Z" fill="#FBD218"/>
<path d="M175.433 158.897C173.427 160.966 175.98 164.212 178.463 162.749L179.269 162.274C180.485 161.558 182.053 162.004 182.711 163.252L183.354 164.472C184.684 166.997 188.526 165.633 187.966 162.834L187.647 161.242C187.378 159.899 188.252 158.593 189.597 158.33L190.922 158.071C193.74 157.52 193.511 153.416 190.649 153.18L189.696 153.102C188.263 152.984 187.233 151.674 187.456 150.254L187.605 149.309C188.05 146.472 184.116 145.283 182.916 147.892L182.351 149.118C181.779 150.363 180.304 150.905 179.062 150.327L177.59 149.642C175.003 148.438 172.771 151.85 174.912 153.738L175.945 154.65C177.004 155.584 177.067 157.213 176.085 158.226L175.433 158.897Z" fill="#A00750"/>
<path d="M113.668 63.3698C111.661 65.4382 114.214 68.6843 116.697 67.2218L117.503 66.7471C118.719 66.0307 120.288 66.4762 120.946 67.725L121.588 68.9447C122.919 71.4699 126.761 70.1054 126.2 67.3067L125.881 65.7151C125.613 64.3719 126.487 63.0661 127.831 62.8031L129.156 62.5438C131.974 61.9923 131.746 57.8883 128.884 57.653L127.93 57.5747C126.498 57.4569 125.467 56.1466 125.69 54.7265L125.839 53.7816C126.285 50.9449 122.35 49.7556 121.15 52.3644L120.586 53.5909C120.013 54.8353 118.538 55.3772 117.296 54.7993L115.825 54.1145C113.237 52.9103 111.005 56.3224 113.146 58.2105L114.18 59.1225C115.238 60.0562 115.302 61.6852 114.319 62.6984L113.668 63.3698Z" fill="#0CB2F4"/>
<path d="M59.7239 110.149C58.5575 113.218 62.6926 115.463 64.6308 112.813L65.26 111.953C66.2093 110.655 68.0509 110.414 69.3025 111.423L70.5249 112.41C73.0557 114.451 76.4598 111.291 74.6113 108.616L73.56 107.094C72.6729 105.81 72.9986 104.05 74.2864 103.168L75.5556 102.3C78.2553 100.452 76.1653 96.261 73.065 97.3056L72.0323 97.6536C70.4803 98.1765 68.8111 97.2704 68.4042 95.684L68.1334 94.6285C67.3205 91.4595 62.6676 91.9898 62.5887 95.2605L62.5515 96.7981C62.5139 98.3582 61.215 99.5904 59.6551 99.5459L57.8064 99.4932C54.556 99.4005 53.7603 103.977 56.8512 104.987L58.3442 105.475C59.8728 105.974 60.6738 107.65 60.1025 109.153L59.7239 110.149Z" fill="#0CB2F4"/>
<path d="M110.603 186.268C112.454 188.436 115.898 186.269 114.745 183.662L113.845 181.628C113.283 180.359 113.876 178.877 115.158 178.344L116.802 177.661C119.462 176.557 118.406 172.568 115.548 172.924L114.041 173.112C112.62 173.289 111.346 172.226 111.266 170.796L111.167 169.004C111.008 166.146 106.931 165.797 106.289 168.586L105.79 170.749C105.485 172.075 104.165 172.905 102.838 172.606L100.672 172.119C97.8799 171.492 96.4302 175.318 98.9375 176.698L100.51 177.563C101.764 178.254 102.172 179.862 101.397 181.067L100.575 182.345C99.0172 184.767 102.156 187.445 104.303 185.526L105.63 184.339C106.665 183.414 108.258 183.521 109.159 184.576L110.603 186.268Z" fill="#FBD218"/>
<path d="M192.211 145.175C192.604 148.029 196.733 148.018 197.111 145.162L197.209 144.421C197.395 143.022 198.712 142.062 200.1 142.313L201.27 142.524C204.079 143.032 205.371 139.164 202.821 137.882L201.545 137.241C200.321 136.625 199.831 135.131 200.453 133.91L200.977 132.881C202.279 130.322 198.907 127.972 196.958 130.08L196.434 130.646C195.459 131.701 193.793 131.706 192.812 130.656L192.286 130.093C190.325 127.994 186.965 130.362 188.281 132.914L188.811 133.94C189.439 135.158 188.957 136.655 187.736 137.277L186.464 137.925C183.92 139.22 185.232 143.081 188.038 142.559L189.207 142.341C190.595 142.083 191.916 143.037 192.109 144.435L192.211 145.175Z" fill="#FBD218"/>
<path d="M179.703 83.62C180.096 86.4745 184.225 86.4637 184.604 83.6072L184.702 82.8667C184.887 81.4676 186.204 80.5071 187.593 80.758L188.762 80.9694C191.571 81.477 192.863 77.6096 190.313 76.3273L189.037 75.686C187.813 75.0704 187.323 73.5765 187.945 72.3553L188.469 71.3258C189.771 68.7668 186.399 66.4172 184.45 68.5256L183.926 69.0917C182.951 70.1466 181.285 70.151 180.304 69.1012L179.778 68.5379C177.818 66.4396 174.458 68.807 175.774 71.3591L176.303 72.3858C176.931 73.6037 176.449 75.1001 175.228 75.7222L173.956 76.3701C171.412 77.6658 172.724 81.5264 175.531 81.0041L176.699 80.7866C178.087 80.5283 179.409 81.4819 179.601 82.88L179.703 83.62Z" fill="#A00750"/>
<path d="M131.038 135.382C129.756 136.703 131.387 138.777 132.973 137.843L133.253 137.678C134.03 137.22 135.032 137.505 135.452 138.303L135.743 138.854C136.592 140.467 139.046 139.596 138.689 137.808L138.536 137.043C138.364 136.185 138.922 135.351 139.781 135.183L140.366 135.068C142.166 134.716 142.02 132.094 140.191 131.944L139.849 131.916C138.934 131.841 138.275 131.004 138.418 130.096L138.471 129.757C138.757 127.945 136.244 127.185 135.476 128.851L135.227 129.393C134.861 130.188 133.919 130.534 133.126 130.165L132.418 129.836C130.765 129.067 129.34 131.247 130.708 132.452L131.175 132.865C131.852 133.461 131.892 134.502 131.264 135.149L131.038 135.382Z" fill="#10185A"/>
<path d="M142.6 128.577C142.121 130.015 144.071 130.972 144.915 129.712L145.063 129.49C145.476 128.873 146.322 128.726 146.918 129.168L147.331 129.474C148.537 130.367 150.047 128.845 149.143 127.646L148.756 127.132C148.323 126.557 148.439 125.739 149.016 125.308L149.41 125.014C150.62 124.109 149.575 122.216 148.165 122.758L147.901 122.859C147.195 123.131 146.407 122.744 146.189 122.02L146.107 121.749C145.672 120.303 143.536 120.636 143.562 122.146L143.57 122.638C143.582 123.358 143.007 123.951 142.287 123.96L141.644 123.969C140.143 123.989 139.864 126.115 141.309 126.521L141.803 126.66C142.518 126.861 142.92 127.619 142.685 128.323L142.6 128.577Z" fill="#A00750"/>
<path d="M144.771 116.654C144.325 117.992 146.14 118.882 146.924 117.71C147.309 117.136 148.098 117.002 148.653 117.413C149.803 118.265 151.264 116.83 150.403 115.687L150.328 115.588C149.916 115.041 150.027 114.264 150.574 113.855L150.709 113.754C151.837 112.911 150.863 111.147 149.549 111.652C148.891 111.905 148.157 111.545 147.953 110.87C147.548 109.522 145.557 109.832 145.581 111.239L145.584 111.408C145.596 112.092 145.049 112.655 144.365 112.664L144.24 112.666C142.81 112.685 142.57 114.719 143.947 115.106C144.612 115.293 144.99 115.999 144.771 116.654Z" fill="#10185A"/>
<path d="M139.941 109.369C139.585 110.436 141.034 111.147 141.66 110.211C141.967 109.753 142.597 109.646 143.04 109.974C143.958 110.654 145.124 109.509 144.437 108.597L144.377 108.517C144.048 108.081 144.136 107.461 144.574 107.134L144.681 107.053C145.581 106.38 144.804 104.972 143.755 105.375C143.23 105.577 142.644 105.29 142.482 104.751C142.158 103.675 140.569 103.923 140.588 105.046L140.59 105.181C140.599 105.727 140.163 106.176 139.617 106.184L139.518 106.185C138.376 106.2 138.184 107.823 139.284 108.133C139.815 108.282 140.116 108.846 139.941 109.369Z" fill="#FBD218"/>
<path d="M133.313 108.929C133.234 110.052 134.814 110.379 135.187 109.317C135.37 108.797 135.954 108.537 136.465 108.744C137.523 109.174 138.367 107.774 137.474 107.062L137.396 107C136.97 106.659 136.901 106.037 137.243 105.611L137.327 105.506C138.031 104.63 136.928 103.46 136.012 104.112C135.554 104.438 134.914 104.306 134.623 103.824C134.042 102.863 132.564 103.499 132.863 104.582L132.898 104.712C133.043 105.238 132.733 105.782 132.206 105.925L132.11 105.951C131.007 106.25 131.226 107.87 132.368 107.896C132.92 107.908 133.352 108.379 133.313 108.929Z" fill="#A00750"/>
<path d="M131.676 114.828C131.622 115.587 132.689 115.807 132.941 115.09C133.065 114.739 133.459 114.563 133.804 114.704C134.518 114.994 135.088 114.049 134.486 113.568L134.433 113.526C134.145 113.296 134.098 112.875 134.329 112.588L134.386 112.517C134.861 111.926 134.116 111.136 133.498 111.576C133.188 111.796 132.757 111.707 132.56 111.382C132.168 110.732 131.17 111.162 131.371 111.893L131.396 111.981C131.493 112.336 131.284 112.703 130.928 112.8L130.863 112.818C130.119 113.02 130.267 114.113 131.038 114.131C131.41 114.139 131.702 114.457 131.676 114.828Z" fill="#0CB2F4"/>
<path d="M135.01 118.641C134.971 119.195 135.75 119.356 135.935 118.833C136.025 118.576 136.313 118.448 136.565 118.55C137.087 118.762 137.503 118.071 137.063 117.72L137.024 117.69C136.814 117.522 136.78 117.215 136.948 117.005L136.99 116.953C137.337 116.521 136.793 115.944 136.341 116.265C136.115 116.426 135.8 116.361 135.656 116.123C135.37 115.649 134.641 115.963 134.788 116.497L134.806 116.561C134.877 116.821 134.724 117.089 134.464 117.159L134.417 117.172C133.873 117.32 133.981 118.119 134.544 118.132C134.816 118.138 135.029 118.37 135.01 118.641Z" fill="#FBD218"/>
<path d="M95.7372 100.226C96.4801 103.01 100.576 102.489 100.599 99.6076L100.604 98.8606C100.615 97.4493 101.803 96.3335 103.213 96.4109L104.399 96.4761C107.25 96.6327 108.054 92.6353 105.364 91.6779L104.02 91.1992C102.729 90.7396 102.058 89.3177 102.524 88.029L102.917 86.9427C103.893 84.2423 100.256 82.3274 98.5823 84.6606L98.133 85.287C97.2955 86.4544 95.6427 86.6646 94.5396 85.744L93.9478 85.2501C91.7432 83.4101 88.7014 86.1745 90.3228 88.5445L90.9751 89.4979C91.7488 90.6289 91.4552 92.1734 90.3204 92.9416L89.1382 93.7417C86.7744 95.3418 88.5534 99.0107 91.2736 98.1456L92.4063 97.7853C93.7513 97.3576 95.1808 98.1406 95.5447 99.5042L95.7372 100.226Z" fill="#A00750"/>
<path d="M189.566 119.015C187.549 121.084 190.111 124.342 192.597 122.869L193.066 122.591C194.286 121.868 195.862 122.317 196.518 123.573L197.087 124.663C198.406 127.187 202.244 125.849 201.707 123.052L201.406 121.482C201.151 120.152 202.013 118.864 203.34 118.593L204.494 118.358C207.31 117.783 207.045 113.676 204.178 113.469L203.594 113.427C202.141 113.322 201.094 111.99 201.334 110.553L201.43 109.976C201.905 107.141 197.976 105.915 196.754 108.517L196.253 109.583C195.677 110.808 194.223 111.343 192.99 110.781L191.535 110.119C188.944 108.938 186.739 112.352 188.881 114.229L189.806 115.039C190.872 115.973 190.937 117.61 189.947 118.625L189.566 119.015Z" fill="#10185A"/>
<path d="M114.867 118.866C115.151 120.926 118.131 120.918 118.404 118.856L118.474 118.322C118.608 117.312 119.558 116.619 120.561 116.8L121.405 116.953C123.432 117.319 124.364 114.528 122.524 113.603L121.603 113.14C120.72 112.695 120.366 111.617 120.815 110.736L121.193 109.993C122.133 108.146 119.699 106.451 118.293 107.972L117.915 108.381C117.211 109.142 116.009 109.145 115.301 108.388L114.921 107.981C113.506 106.467 111.081 108.175 112.031 110.017L112.413 110.758C112.867 111.637 112.519 112.717 111.637 113.166L110.719 113.633C108.884 114.569 109.831 117.355 111.856 116.978L112.699 116.821C113.701 116.634 114.655 117.323 114.793 118.332L114.867 118.866Z" fill="#0CB2F4"/>
<path d="M51.1311 126.238C47.6592 127.867 49.3073 133.11 53.0868 132.46L54.3137 132.249C56.165 131.93 57.9069 133.223 58.1374 135.088L58.3625 136.909C58.8287 140.678 64.2533 140.79 64.8744 137.043L65.2277 134.912C65.5258 133.113 67.2292 131.9 69.0262 132.206L70.7974 132.508C74.5648 133.149 76.2141 127.933 72.7629 126.292L71.6133 125.745C69.8857 124.924 69.2204 122.807 70.1673 121.145L70.7973 120.039C72.6888 116.718 68.3521 113.384 65.6292 116.066L64.3491 117.327C63.0503 118.606 60.9591 118.585 59.6857 117.281L58.1765 115.735C55.5231 113.017 51.1381 116.212 52.9126 119.571L53.7698 121.193C54.6473 122.854 53.9587 124.911 52.2581 125.709L51.1311 126.238Z" fill="#FBD218"/>
<path d="M163.457 175.654C162.02 178.14 165.263 180.666 167.322 178.663L167.819 178.179C168.825 177.201 170.443 177.255 171.382 178.299L171.946 178.927C173.86 181.056 177.258 178.773 176.011 176.197L175.609 175.366C175.003 174.115 175.548 172.61 176.814 172.037L177.57 171.694C180.183 170.51 179.022 166.574 176.185 166.996L175.49 167.1C174.093 167.308 172.807 166.306 172.666 164.901L172.596 164.201C172.31 161.347 168.209 161.187 167.702 164.01L167.555 164.827C167.309 166.195 165.984 167.092 164.623 166.811L163.719 166.625C160.915 166.048 159.535 169.901 162.068 171.235L162.815 171.628C164.057 172.282 164.506 173.838 163.804 175.053L163.457 175.654Z" fill="#FBD218"/>
<path d="M77.815 171.178C75.5021 173.562 78.4451 177.304 81.3074 175.618L82.2365 175.071C83.6385 174.245 85.4462 174.759 86.2047 176.198L86.9455 177.604C88.4791 180.515 92.9078 178.942 92.2619 175.716L91.8945 173.881C91.5845 172.333 92.5923 170.828 94.1419 170.524L95.6692 170.226C98.9178 169.59 98.6544 164.859 95.3553 164.588L94.2564 164.497C92.6049 164.362 91.417 162.851 91.6742 161.214L91.8454 160.125C92.3594 156.855 87.8238 155.484 86.4404 158.491L85.79 159.905C85.1301 161.34 83.4297 161.964 81.9981 161.298L80.3016 160.509C77.3185 159.121 74.7462 163.054 77.2136 165.23L78.4055 166.282C79.6257 167.358 79.6988 169.236 78.5658 170.404L77.815 171.178Z" fill="#0CB2F4"/>
<path d="M96.2225 137.647C96.6157 140.502 100.745 140.491 101.123 137.635L101.221 136.894C101.406 135.495 102.723 134.534 104.112 134.785L105.282 134.997C108.091 135.504 109.382 131.637 106.832 130.355L105.557 129.713C104.333 129.098 103.843 127.604 104.464 126.383L104.988 125.353C106.291 122.794 102.919 120.444 100.969 122.553L100.446 123.119C99.4706 124.174 97.8045 124.178 96.8237 123.129L96.2974 122.565C94.3371 120.467 90.977 122.834 92.2931 125.386L92.8226 126.413C93.4506 127.631 92.9684 129.127 91.7473 129.75L90.4754 130.397C87.932 131.693 89.2439 135.554 92.0502 135.031L93.2188 134.814C94.6063 134.556 95.9281 135.509 96.1206 136.907L96.2225 137.647Z" fill="#0CB2F4"/>
<path d="M158.981 90.2196C160.442 88.1501 157.783 85.6786 155.826 87.2868L155.19 87.8089C154.232 88.5966 152.809 88.4232 152.068 87.4283L151.344 86.4566C149.844 84.4448 146.694 86.1529 147.561 88.507L148.055 89.8459C148.471 90.9757 147.89 92.2288 146.758 92.6402L145.643 93.0458C143.271 93.9085 144.028 97.4415 146.545 97.2561L147.384 97.1943C148.644 97.1015 149.718 98.0992 149.717 99.3628L149.717 100.204C149.716 102.728 153.295 103.225 153.982 100.796L154.305 99.6539C154.632 98.4953 155.84 97.8238 156.997 98.1566L158.368 98.5509C160.779 99.2443 162.253 95.9773 160.137 94.6291L159.115 93.9778C158.068 93.3111 157.791 91.905 158.507 90.8914L158.981 90.2196Z" fill="#FBD218"/>
<path d="M113.965 74.1344C116.78 73.521 116.449 69.4045 113.571 69.2495L112.637 69.1992C111.228 69.1232 110.168 67.8847 110.31 66.4804L110.45 65.1088C110.738 62.2692 106.783 61.2809 105.702 63.9224L105.087 65.4247C104.568 66.6924 103.117 67.2967 101.852 66.7723L100.605 66.2554C97.9517 65.1561 95.872 68.7015 98.1262 70.4805L98.877 71.0731C100.005 71.9636 100.139 73.6253 99.1678 74.6849L98.5214 75.3899C96.5809 77.5066 99.201 80.6737 101.644 79.1642L102.792 78.4545C103.957 77.7344 105.486 78.0988 106.201 79.2672L107.048 80.6518C108.538 83.0863 112.284 81.478 111.546 78.7211L111.189 77.3894C110.823 76.026 111.672 74.6339 113.051 74.3335L113.965 74.1344Z" fill="#FBD218"/>
<path d="M127.316 94.56C128.838 92.9906 126.901 90.5277 125.017 91.6374L124.406 91.9975C123.483 92.5411 122.293 92.2031 121.794 91.2556L121.306 90.3302C120.297 88.4143 117.382 89.4496 117.807 91.5729L118.049 92.7806C118.253 93.7996 117.59 94.7903 116.57 94.9899L115.565 95.1866C113.426 95.605 113.6 98.7189 115.771 98.8973L116.494 98.9568C117.581 99.0461 118.363 100.04 118.194 101.118L118.081 101.835C117.743 103.987 120.728 104.889 121.639 102.91L122.067 101.979C122.501 101.035 123.62 100.624 124.563 101.062L125.679 101.582C127.643 102.496 129.336 99.9069 127.712 98.4744L126.927 97.7824C126.124 97.074 126.076 95.8381 126.822 95.0694L127.316 94.56Z" fill="#A00750"/>
<path d="M199.315 92.8662C201.322 90.7978 198.769 87.5516 196.286 89.0141L195.48 89.4888C194.263 90.2052 192.695 89.7597 192.037 88.5109L191.395 87.2912C190.064 84.7661 186.222 86.1306 186.783 88.9292L187.101 90.5209C187.37 91.864 186.496 93.1698 185.152 93.4329L183.827 93.6921C181.009 94.2436 181.237 98.3477 184.099 98.5829L185.052 98.6613C186.485 98.779 187.516 100.089 187.292 101.509L187.144 102.454C186.698 105.291 190.633 106.48 191.833 103.872L192.397 102.645C192.969 101.401 194.445 100.859 195.686 101.437L197.158 102.121C199.746 103.326 201.977 99.9135 199.837 98.0254L198.803 97.1135C197.744 96.1797 197.681 94.5507 198.664 93.5376L199.315 92.8662Z" fill="#0CB2F4"/>
<path d="M148.357 55.641C149.568 53.0264 146.087 50.8045 144.226 53.0045L143.621 53.7186C142.71 54.7962 141.082 54.8931 140.049 53.9314L139.04 52.992C136.951 51.0474 133.774 53.6032 135.227 56.0601L136.053 57.4575C136.75 58.6366 136.356 60.1578 135.174 60.8497L134.008 61.5317C131.53 62.9822 133.1 66.781 135.879 66.0586L136.805 65.818C138.196 65.4564 139.602 66.3533 139.859 67.7675L140.031 68.7084C140.546 71.5334 144.653 71.3577 144.925 68.499L145.053 67.1551C145.183 65.7914 146.396 64.7932 147.759 64.9289L149.375 65.0897C152.215 65.3725 153.195 61.4152 150.552 60.3392L149.275 59.8195C147.967 59.2873 147.37 57.7705 147.963 56.4898L148.357 55.641Z" fill="#10185A"/>
<path d="M167.618 58.3484C168.454 55.5908 164.698 53.8751 163.161 56.3123L162.762 56.9441C162.009 58.1378 160.412 58.4601 159.255 57.6518L158.28 56.9709C155.941 55.336 153.151 58.3098 154.932 60.5405L155.823 61.656C156.678 62.7269 156.499 64.2889 155.424 65.1386L154.517 65.8549C152.265 67.6354 154.347 71.1793 156.999 70.0783L157.711 69.7827C159.037 69.2318 160.553 69.9241 161.005 71.2877L161.248 72.0194C162.152 74.7448 166.194 73.9981 166.065 71.1295L166.013 69.9756C165.951 68.6066 167.015 67.4486 168.384 67.3937L169.81 67.3366C172.662 67.2223 173.084 63.1666 170.316 62.4685L169.163 62.1778C167.795 61.8326 166.993 60.4139 167.402 59.0633L167.618 58.3484Z" fill="#FBD218"/>
<path d="M95.983 104.768C95.5899 101.914 91.4606 101.925 91.0824 104.781L90.9844 105.522C90.7991 106.921 89.4823 107.881 88.0935 107.63L86.9238 107.419C84.1148 106.911 82.8231 110.779 85.3733 112.061L86.6486 112.702C87.8729 113.318 88.363 114.812 87.7413 116.033L87.2173 117.062C85.9146 119.621 89.2869 121.971 91.2363 119.863L91.7596 119.297C92.7349 118.242 94.401 118.237 95.3818 119.287L95.9081 119.85C97.8685 121.949 101.228 119.581 99.9124 117.029L99.383 116.003C98.7549 114.785 99.2372 113.288 100.458 112.666L101.73 112.018C104.274 110.722 102.962 106.862 100.155 107.384L98.9868 107.602C97.5993 107.86 96.2775 106.906 96.0849 105.508L95.983 104.768Z" fill="#FBD218"/>
<path d="M128.849 174.673C127.278 172.258 123.546 174.026 124.42 176.771L124.647 177.483C125.075 178.828 124.292 180.258 122.929 180.622L121.78 180.929C119.023 181.666 119.501 185.715 122.354 185.789L123.781 185.826C125.151 185.862 126.231 187.005 126.188 188.375L126.152 189.53C126.063 192.4 130.115 193.09 130.981 190.352L131.214 189.617C131.647 188.247 133.152 187.534 134.487 188.066L135.203 188.352C137.87 189.415 139.902 185.843 137.625 184.094L136.709 183.39C135.622 182.556 135.421 180.996 136.261 179.914L137.136 178.786C138.886 176.53 136.055 173.596 133.738 175.263L132.773 175.958C131.628 176.782 130.026 176.482 129.256 175.299L128.849 174.673Z" fill="#A00750"/>
<path d="M140.644 83.2167C142.38 81.4278 140.171 78.6199 138.024 79.8852L137.645 80.1084C136.593 80.7281 135.237 80.3428 134.668 79.2625L134.274 78.5158C133.124 76.3319 129.801 77.5111 130.285 79.9315L130.493 80.9684C130.725 82.1296 129.969 83.2583 128.807 83.4861L128.014 83.6415C125.577 84.1192 125.775 87.6688 128.251 87.8713L128.714 87.9092C129.954 88.0107 130.846 89.1447 130.652 90.3734L130.58 90.8325C130.193 93.2859 133.596 94.3156 134.634 92.0596L134.972 91.3255C135.468 90.2498 136.743 89.7814 137.817 90.2807L138.775 90.7265C141.013 91.7671 142.943 88.816 141.091 87.1835L140.458 86.6253C139.543 85.8178 139.488 84.4086 140.338 83.5323L140.644 83.2167Z" fill="#0CB2F4"/>
<path d="M151.893 144.62C151.5 141.765 147.371 141.776 146.993 144.633L146.895 145.373C146.709 146.772 145.392 147.733 144.004 147.482L142.834 147.27C140.025 146.763 138.733 150.63 141.283 151.913L142.559 152.554C143.783 153.169 144.273 154.663 143.651 155.885L143.127 156.914C141.825 159.473 145.197 161.823 147.146 159.714L147.67 159.148C148.645 158.093 150.311 158.089 151.292 159.139L151.818 159.702C153.779 161.8 157.139 159.433 155.823 156.881L155.293 155.854C154.665 154.636 155.147 153.14 156.368 152.518L157.64 151.87C160.184 150.574 158.872 146.713 156.066 147.236L154.897 147.453C153.509 147.712 152.188 146.758 151.995 145.36L151.893 144.62Z" fill="#A00750"/>
<path d="M81.6179 146.285C84.1377 143.701 80.9372 139.632 77.832 141.471L77.2459 141.819C75.7224 142.721 73.7535 142.161 72.9337 140.591L72.2227 139.23C70.5756 136.077 65.7812 137.749 66.4516 141.242L66.8279 143.204C67.1468 144.865 66.0696 146.474 64.4119 146.812L62.9706 147.106C59.4525 147.824 59.7841 152.954 63.3653 153.213L64.0942 153.266C65.9094 153.397 67.2182 155.061 66.9179 156.856L66.7974 157.577C66.2049 161.118 71.1128 162.65 72.6394 159.4L73.2648 158.068C73.9841 156.537 75.8014 155.87 77.341 156.571L79.1584 157.399C82.3956 158.874 85.1501 154.608 82.4739 152.265L81.3187 151.253C79.9865 150.086 79.906 148.041 81.1422 146.773L81.6179 146.285Z" fill="#10185A"/>
<path d="M166.225 127.909C165.832 125.054 161.703 125.065 161.325 127.922L161.227 128.662C161.041 130.061 159.725 131.022 158.336 130.771L157.166 130.559C154.357 130.052 153.065 133.919 155.615 135.202L156.891 135.843C158.115 136.459 158.605 137.952 157.984 139.174L157.459 140.203C156.157 142.762 159.529 145.112 161.478 143.003L162.002 142.437C162.977 141.382 164.643 141.378 165.624 142.428L166.15 142.991C168.111 145.089 171.471 142.722 170.155 140.17L169.625 139.143C168.997 137.925 169.479 136.429 170.7 135.807L171.972 135.159C174.516 133.863 173.204 130.003 170.398 130.525L169.229 130.742C167.841 131.001 166.52 130.047 166.327 128.649L166.225 127.909Z" fill="#10185A"/>
<path d="M119.073 144.726C121.08 142.657 118.526 139.411 116.043 140.873L115.237 141.348C114.021 142.065 112.453 141.619 111.795 140.37L111.152 139.151C109.822 136.625 105.98 137.99 106.541 140.789L106.859 142.38C107.128 143.723 106.254 145.029 104.91 145.292L103.585 145.551C100.767 146.103 100.995 150.207 103.857 150.442L104.81 150.521C106.243 150.638 107.273 151.949 107.05 153.369L106.902 154.314C106.456 157.15 110.391 158.34 111.591 155.731L112.155 154.504C112.727 153.26 114.202 152.718 115.444 153.296L116.916 153.981C119.504 155.185 121.735 151.773 119.595 149.885L118.561 148.973C117.502 148.039 117.439 146.41 118.422 145.397L119.073 144.726Z" fill="#FBD218"/>
<path d="M123.956 122.95C123.678 120.936 120.765 120.944 120.499 122.959L120.429 123.482C120.299 124.469 119.37 125.146 118.39 124.969L117.565 124.82C115.583 124.462 114.672 127.19 116.471 128.095L117.371 128.547C118.234 128.981 118.58 130.035 118.142 130.897L117.772 131.623C116.853 133.428 119.232 135.086 120.607 133.598L120.976 133.199C121.664 132.455 122.84 132.452 123.532 133.192L123.903 133.59C125.286 135.07 127.656 133.4 126.728 131.6L126.354 130.875C125.911 130.016 126.251 128.96 127.113 128.522L128.01 128.065C129.804 127.15 128.879 124.427 126.899 124.795L126.075 124.949C125.096 125.131 124.163 124.458 124.028 123.472L123.956 122.95Z" fill="#FBD218"/>
<path d="M138.151 156.448C140.158 154.38 137.605 151.134 135.122 152.596L134.316 153.071C133.099 153.787 131.531 153.342 130.873 152.093L130.231 150.873C128.9 148.348 125.058 149.713 125.619 152.511L125.937 154.103C126.206 155.446 125.332 156.752 123.988 157.015L122.663 157.274C119.845 157.826 120.073 161.93 122.935 162.165L123.888 162.243C125.321 162.361 126.352 163.671 126.128 165.091L125.98 166.036C125.534 168.873 129.469 170.062 130.669 167.454L131.233 166.227C131.805 164.983 133.28 164.441 134.522 165.019L135.994 165.703C138.582 166.908 140.813 163.496 138.673 161.607L137.639 160.695C136.58 159.762 136.517 158.133 137.5 157.12L138.151 156.448Z" fill="#0CB2F4"/>
<path d="M149.649 172.749C148.109 170.314 144.355 172.034 145.194 174.791L145.412 175.505C145.823 176.855 145.022 178.275 143.654 178.622L142.502 178.914C139.735 179.616 140.161 183.671 143.014 183.782L144.44 183.837C145.809 183.89 146.874 185.047 146.814 186.416L146.764 187.57C146.638 190.439 150.681 191.18 151.582 188.454L151.824 187.722C152.274 186.357 153.789 185.663 155.116 186.213L155.829 186.507C158.482 187.605 160.56 184.058 158.305 182.281L157.397 181.566C156.321 180.717 156.14 179.155 156.994 178.083L157.883 176.967C159.661 174.734 156.868 171.764 154.53 173.401L153.557 174.084C152.401 174.893 150.803 174.573 150.048 173.38L149.649 172.749Z" fill="#0CB2F4"/>
</svg>
