<svg width="121" height="121" viewBox="0 0 121 121" fill="none" xmlns="http://www.w3.org/2000/svg">
<circle cx="60.1177" cy="60.6156" r="30.2886" transform="rotate(4.24234 60.1177 60.6156)" fill="#F90047"/>
<path d="M46.8844 34.6794C46.6094 38.3872 52.6346 42.7815 61.5648 43.444C70.4949 44.1064 76.8848 40.6329 77.3776 36.9414C77.4261 36.287 77.6763 35.867 78.1443 35.4631C73.7644 32.5066 68.4487 30.3579 62.5678 29.9216C56.687 29.4854 51.1123 30.8263 46.328 33.3223C46.7475 33.5728 46.9168 34.2432 46.8844 34.6794Z" fill="#0CB2F4"/>
<path d="M42.4905 64.3979C43.0729 56.5463 45.5671 49.4943 49.4241 44.7365C45.4475 42.2485 42.8263 39.2031 42.4318 35.665C35.493 40.6329 30.5059 48.8157 29.8102 58.1941C28.7748 72.1526 37.2831 84.4068 49.641 89.0516C44.5355 84.0675 41.7139 74.8668 42.4905 64.3979Z" fill="#0CB2F4"/>
<path d="M81.6538 38.3552C80.9594 41.8126 77.9014 44.656 73.3996 46.2957C76.4962 51.7887 77.9226 59.1315 77.3564 66.765C76.5798 77.2339 72.4315 85.9176 66.6304 90.312C79.5383 87.5413 89.7616 76.6766 90.797 62.7181C91.4927 53.3397 87.7675 44.5106 81.6538 38.3552Z" fill="#0CB2F4"/>
<path d="M68.9272 47.5007C66.4827 47.9772 63.8529 48.0015 61.2392 47.8076C58.4076 47.5975 56.0441 46.9836 53.6806 46.3697C49.8721 50.4732 47.3941 57.3071 46.8602 64.5044C45.9218 77.1544 51.0261 88.0595 58.2138 88.5927C65.4015 89.1258 72.0751 78.8751 72.9972 66.4432C73.5311 59.2459 72.0724 52.3393 68.9272 47.5007ZM66.2925 71.2092C66.4456 72.0977 66.1469 73.1721 65.2433 73.5436C64.7915 73.7294 64.3397 73.9152 63.9041 73.8829C63.4685 73.8506 63.049 73.6002 62.6296 73.3498C60.7826 71.6776 57.951 71.4676 55.8775 72.8489C54.9577 73.4386 54.0865 73.374 53.2638 72.655C52.4411 71.9361 52.288 71.0475 52.5705 70.1913C53.6197 67.8568 52.9426 65.1749 50.8778 63.4867C50.0551 62.7677 49.902 61.8792 50.1845 61.0229C50.4671 60.1666 51.3868 59.577 52.4759 59.6578C55.0896 59.8516 57.3809 58.4865 58.2123 56.1358C58.4948 55.2796 59.4146 54.6899 60.5036 54.7707C61.5927 54.8515 62.1976 55.5542 62.5685 56.459C63.2617 58.9227 65.3266 60.611 67.7225 60.7887C68.5937 60.8533 69.4164 61.5723 69.7873 62.477C69.9404 63.3656 69.6417 64.4399 68.7381 64.8115C66.6646 66.1928 65.5992 68.7454 66.2925 71.2092Z" fill="#0CB2F4"/>
</svg>
