<svg width="115" height="114" viewBox="0 0 115 114" fill="none" xmlns="http://www.w3.org/2000/svg">
<circle cx="56.8039" cy="57.3101" r="30.2886" transform="rotate(16.677 56.8039 57.3101)" fill="#FFBB33"/>
<path d="M49.4657 29.133C48.3987 32.6945 53.3364 38.2832 61.9144 40.853C70.4925 43.4228 77.4804 41.4067 78.7565 37.9078C78.9448 37.2793 79.2796 36.923 79.8235 36.6293C76.183 32.7991 71.4546 29.5561 65.8057 27.8638C60.1567 26.1715 54.4241 26.2806 49.2146 27.6879C49.5703 28.0228 49.5912 28.714 49.4657 29.133Z" fill="#F90047"/>
<path d="M38.7756 57.2082C41.035 49.6661 44.9892 43.3167 49.7802 39.501C46.4327 36.2151 44.5287 32.6767 44.9052 29.1367C37.0596 32.4939 30.4274 39.4109 27.7287 48.4195C23.7119 61.8277 29.382 75.6264 40.4498 82.8232C36.5373 76.8568 35.763 67.2643 38.7756 57.2082Z" fill="#F90047"/>
<path d="M82.628 40.2093C81.2054 43.436 77.6068 45.5542 72.8576 46.1862C74.6988 52.2171 74.5106 59.6947 72.314 67.0273C69.3014 77.0834 63.3806 84.6702 56.7693 87.7123C69.9711 87.786 82.2939 79.3776 86.3107 65.9694C89.0095 56.9608 87.2728 47.5367 82.628 40.2093Z" fill="#F90047"/>
<path d="M68.2307 46.3995C65.741 46.3386 63.1676 45.796 60.6569 45.0438C57.937 44.229 55.7611 43.1206 53.5852 42.0121C48.9825 45.1993 45.0911 51.3393 43.02 58.2529C39.3798 70.404 42.0161 82.1524 48.9204 84.2207C55.8247 86.2891 64.549 77.7158 68.1264 65.7742C70.1976 58.8606 70.2602 51.8019 68.2307 46.3995ZM60.5527 68.9846C60.5109 69.8853 59.9879 70.8701 59.0255 71.0384C58.5443 71.1225 58.0631 71.2067 57.6446 71.0813C57.2262 70.956 56.8705 70.6211 56.5148 70.2863C55.0712 68.2556 52.3513 67.4408 50.029 68.3432C49.0038 68.721 48.1669 68.4703 47.5183 67.5911C46.8697 66.7119 46.9116 65.8112 47.3718 65.0359C48.8991 62.9821 48.8154 60.2173 47.1625 58.124C46.5139 57.2448 46.5557 56.3441 47.016 55.5688C47.4763 54.7935 48.5014 54.4157 49.5475 54.7291C52.0582 55.4812 54.5897 54.6415 55.9078 52.525C56.368 51.7496 57.3932 51.3718 58.4393 51.6852C59.4854 51.9986 59.9248 52.8152 60.0922 53.7785C60.2387 56.3338 61.8915 58.427 64.193 59.1165C65.0298 59.3672 65.6784 60.2464 65.8458 61.2098C65.804 62.1105 65.281 63.0953 64.3186 63.2636C61.9963 64.166 60.4062 66.4293 60.5527 68.9846Z" fill="#F90047"/>
</svg>
