<svg width="999" height="1013" viewBox="0 0 999 1013" fill="none" xmlns="http://www.w3.org/2000/svg">
<rect width="999" height="1012.55" fill="#F7EAD6"/>
<ellipse cx="527.471" cy="379.704" rx="124.875" ry="126.568" fill="#F90047"/>
<ellipse cx="521.479" cy="687.52" rx="124.875" ry="126.568" fill="#FFBB33"/>
<rect x="369.631" y="68.853" width="539.46" height="15.1882" fill="#10185A"/>
<rect x="237.765" y="687.52" width="289.71" height="15.1882" fill="#10185A"/>
<rect x="237.765" y="372.617" width="289.71" height="15.1882" fill="#10185A"/>
<rect x="519.481" y="372.617" width="290.709" height="15.1882" fill="#10185A"/>
<rect x="237.765" y="376.665" width="192.384" height="14.985" transform="rotate(-90 237.765 376.665)" fill="#10185A"/>
<rect x="237.765" y="881.926" width="388.818" height="14.985" transform="rotate(-90 237.765 881.926)" fill="#10185A"/>
<rect x="519.481" y="926.479" width="365.529" height="14.985" transform="rotate(-90 519.481 926.479)" fill="#10185A"/>
<rect x="65.9364" y="611.577" width="118.468" height="14.985" transform="rotate(-90 65.9364 611.577)" fill="#10185A"/>
<rect x="66.9351" y="917.365" width="118.468" height="14.985" transform="rotate(-90 66.9351 917.365)" fill="#10185A"/>
<rect x="151.847" y="569.051" width="75.9409" height="14.985" transform="rotate(-90 151.847 569.051)" fill="#10185A"/>
<rect x="909.087" y="941.668" width="148.844" height="14.985" transform="rotate(-90 909.087 941.668)" fill="#10185A"/>
<rect x="831.166" y="941.668" width="320.977" height="14.985" transform="rotate(-90 831.166 941.668)" fill="#10185A"/>
<rect x="66.9351" y="184.283" width="185.814" height="15.1882" fill="#10185A"/>
<rect x="66.9351" y="493.111" width="185.814" height="15.1882" fill="#10185A"/>
<rect x="65.9364" y="635.88" width="185.814" height="15.1882" fill="#10185A"/>
<rect x="65.9364" y="722.959" width="185.814" height="15.1882" fill="#10185A"/>
<rect x="120.88" y="866.74" width="131.868" height="15.1882" fill="#10185A"/>
<rect x="681.316" y="425.269" width="242.757" height="15.1882" fill="#10185A"/>
<rect x="66.9351" y="798.899" width="185.814" height="15.1882" fill="#10185A"/>
<rect x="66.9351" y="287.563" width="185.814" height="15.1882" fill="#10185A"/>
<rect x="407.59" y="831.298" width="238.761" height="15.1882" fill="#10185A"/>
<rect x="519.481" y="926.479" width="404.595" height="15.1882" fill="#10185A"/>
<rect x="909.087" y="280.476" width="211.622" height="14.985" transform="rotate(-90 909.087 280.476)" fill="#10185A"/>
<rect x="519.481" y="413.119" width="337.178" height="14.985" transform="rotate(-90 519.481 413.119)" fill="#10185A"/>
<rect x="519.481" y="730.046" width="337.178" height="14.985" transform="rotate(-90 519.481 730.046)" fill="#10185A"/>
<rect x="795.205" y="235.923" width="159.982" height="14.985" transform="rotate(-90 795.205 235.923)" fill="#10185A"/>
<rect x="681.316" y="199.472" width="123.531" height="14.985" transform="rotate(-90 681.316 199.472)" fill="#10185A"/>
<rect x="681.316" y="440.459" width="67.8406" height="14.985" transform="rotate(-90 681.316 440.459)" fill="#10185A"/>
</svg>
