<svg width="614" height="935" viewBox="0 0 614 935" fill="none" xmlns="http://www.w3.org/2000/svg">
<rect x="332.098" y="445.98" width="89.1824" height="293.028" rx="44.5912" transform="rotate(-49.6996 332.098 445.98)" fill="#F7EAD6"/>
<rect x="223.48" y="383.06" width="89.1824" height="293.028" rx="44.5912" transform="rotate(49.7 223.48 383.06)" fill="#F7EAD6"/>
<rect x="306.617" y="640.76" width="110.801" height="297.394" rx="50" transform="rotate(-9 306.617 640.76)" fill="#F7EAD6"/>
<rect x="196.855" y="617.482" width="110.801" height="297.394" rx="50" transform="rotate(9 196.855 617.482)" fill="#F7EAD6"/>
<rect x="191.105" y="391.553" width="230.175" height="336.345" rx="49" fill="#F7EAD6"/>
<rect x="191" y="392" width="62" height="203" fill="#10185A"/>
<rect x="191" y="663" width="170" height="231" transform="rotate(-90 191 663)" fill="#10185A"/>
<rect x="358.996" y="392" width="63" height="203" fill="#10185A"/>
<circle cx="306.19" cy="209.366" r="209.366" fill="#F7EAD6"/>
<rect x="303.102" y="655.164" width="119" height="240.962" transform="rotate(-8.99515 303.102 655.164)" fill="#10185A"/>
<rect x="189.695" y="644" width="119" height="235.824" transform="rotate(9 189.695 644)" fill="#10185A"/>
<rect x="238" y="623" width="135" height="111" fill="#10185A"/>
<rect x="240" y="549" width="135" height="11" rx="5.5" fill="#0CB2F4"/>
<rect x="413" y="534" width="146" height="17" rx="8.5" transform="rotate(-90 413 534)" fill="#0CB2F4"/>
<rect x="182" y="534" width="146" height="17" rx="8.5" transform="rotate(-90 182 534)" fill="#0CB2F4"/>
<rect x="333" y="874.517" width="131.156" height="23.4974" rx="11.7487" transform="rotate(-9 333 874.517)" fill="#0CB2F4"/>
<rect x="149.676" y="853" width="131.156" height="23.4974" rx="11.7487" transform="rotate(9 149.676 853)" fill="#0CB2F4"/>
<rect x="239" y="630" width="135" height="11" rx="5.5" fill="#0CB2F4"/>
<rect x="364" y="641" width="92" height="11" rx="5.5" transform="rotate(-90 364 641)" fill="#0CB2F4"/>
<rect x="239" y="641" width="92" height="11" rx="5.5" transform="rotate(-90 239 641)" fill="#0CB2F4"/>
<circle cx="204" cy="209" r="45" fill="black"/>
<circle cx="413" cy="209" r="45" fill="black"/>
</svg>
