<svg width="1463" height="85" viewBox="0 0 1463 85" fill="none" xmlns="http://www.w3.org/2000/svg">
<rect width="1463" height="85" fill="#FDAEEF"/>
<circle cx="46" cy="42" r="35" fill="#F7EAD6"/>
<circle cx="46" cy="40" r="20" fill="#0CB2F4"/>
<path d="M43.6503 26.2315C44.3899 23.9554 47.6101 23.9554 48.3497 26.2315L50.1601 31.8035C50.4909 32.8214 51.4395 33.5106 52.5098 33.5106H58.3685C60.7618 33.5106 61.7569 36.5732 59.8207 37.98L55.0809 41.4236C54.215 42.0528 53.8526 43.1679 54.1834 44.1858L55.9938 49.7578C56.7334 52.034 54.1282 53.9268 52.192 52.52L47.4522 49.0764C46.5863 48.4472 45.4137 48.4472 44.5478 49.0764L39.808 52.52C37.8718 53.9268 35.2666 52.034 36.0062 49.7578L37.8166 44.1859C38.1474 43.1679 37.785 42.0528 36.9191 41.4236L32.1793 37.98C30.2431 36.5732 31.2382 33.5106 33.6315 33.5106H39.4902C40.5605 33.5106 41.5091 32.8214 41.8399 31.8035L43.6503 26.2315Z" fill="#10185A"/>
<circle cx="126" cy="42" r="35" fill="#F7EAD6"/>
<circle cx="136" cy="39" r="20" fill="#0CB2F4"/>
<path d="M133.65 25.2315C134.39 22.9554 137.61 22.9554 138.35 25.2315L140.16 30.8035C140.491 31.8214 141.439 32.5106 142.51 32.5106H148.368C150.762 32.5106 151.757 35.5732 149.821 36.98L145.081 40.4236C144.215 41.0528 143.853 42.1679 144.183 43.1858L145.994 48.7578C146.733 51.034 144.128 52.9268 142.192 51.52L137.452 48.0764C136.586 47.4472 135.414 47.4472 134.548 48.0764L129.808 51.52C127.872 52.9268 125.267 51.034 126.006 48.7578L127.817 43.1859C128.147 42.1679 127.785 41.0528 126.919 40.4236L122.179 36.98C120.243 35.5732 121.238 32.5106 123.632 32.5106H129.49C130.561 32.5106 131.509 31.8214 131.84 30.8035L133.65 25.2315Z" fill="#10185A"/>
<circle cx="206" cy="42" r="35" fill="#F7EAD6"/>
<circle cx="222" cy="42" r="20" fill="#0CB2F4"/>
<path d="M219.65 28.2315C220.39 25.9554 223.61 25.9554 224.35 28.2315L226.16 33.8035C226.491 34.8214 227.439 35.5106 228.51 35.5106H234.368C236.762 35.5106 237.757 38.5732 235.821 39.98L231.081 43.4236C230.215 44.0528 229.853 45.1679 230.183 46.1858L231.994 51.7578C232.733 54.034 230.128 55.9268 228.192 54.52L223.452 51.0764C222.586 50.4472 221.414 50.4472 220.548 51.0764L215.808 54.52C213.872 55.9268 211.267 54.034 212.006 51.7578L213.817 46.1859C214.147 45.1679 213.785 44.0528 212.919 43.4236L208.179 39.98C206.243 38.5732 207.238 35.5106 209.632 35.5106H215.49C216.561 35.5106 217.509 34.8214 217.84 33.8035L219.65 28.2315Z" fill="#10185A"/>
<circle cx="288" cy="42" r="35" fill="#F7EAD6"/>
<circle cx="302" cy="49" r="20" fill="#0CB2F4"/>
<path d="M299.65 35.2315C300.39 32.9554 303.61 32.9554 304.35 35.2315L306.16 40.8035C306.491 41.8214 307.439 42.5106 308.51 42.5106H314.368C316.762 42.5106 317.757 45.5732 315.821 46.98L311.081 50.4236C310.215 51.0528 309.853 52.1679 310.183 53.1858L311.994 58.7578C312.733 61.034 310.128 62.9268 308.192 61.52L303.452 58.0764C302.586 57.4472 301.414 57.4472 300.548 58.0764L295.808 61.52C293.872 62.9268 291.267 61.034 292.006 58.7578L293.817 53.1859C294.147 52.1679 293.785 51.0528 292.919 50.4236L288.179 46.98C286.243 45.5732 287.238 42.5106 289.632 42.5106H295.49C296.561 42.5106 297.509 41.8214 297.84 40.8035L299.65 35.2315Z" fill="#10185A"/>
<circle cx="368" cy="42" r="35" fill="#F7EAD6"/>
<circle cx="380" cy="52" r="20" fill="#0CB2F4"/>
<path d="M377.65 38.2315C378.39 35.9554 381.61 35.9554 382.35 38.2315L384.16 43.8035C384.491 44.8214 385.439 45.5106 386.51 45.5106H392.368C394.762 45.5106 395.757 48.5732 393.821 49.98L389.081 53.4236C388.215 54.0528 387.853 55.1679 388.183 56.1858L389.994 61.7578C390.733 64.034 388.128 65.9268 386.192 64.52L381.452 61.0764C380.586 60.4472 379.414 60.4472 378.548 61.0764L373.808 64.52C371.872 65.9268 369.267 64.034 370.006 61.7578L371.817 56.1859C372.147 55.1679 371.785 54.0528 370.919 53.4236L366.179 49.98C364.243 48.5732 365.238 45.5106 367.632 45.5106H373.49C374.561 45.5106 375.509 44.8214 375.84 43.8035L377.65 38.2315Z" fill="#10185A"/>
<circle cx="448" cy="42" r="35" fill="#F7EAD6"/>
<circle cx="457" cy="56" r="20" fill="#0CB2F4"/>
<path d="M454.65 42.2315C455.39 39.9554 458.61 39.9554 459.35 42.2315L461.16 47.8035C461.491 48.8214 462.439 49.5106 463.51 49.5106H469.368C471.762 49.5106 472.757 52.5732 470.821 53.98L466.081 57.4236C465.215 58.0528 464.853 59.1679 465.183 60.1858L466.994 65.7578C467.733 68.034 465.128 69.9268 463.192 68.52L458.452 65.0764C457.586 64.4472 456.414 64.4472 455.548 65.0764L450.808 68.52C448.872 69.9268 446.267 68.034 447.006 65.7578L448.817 60.1859C449.147 59.1679 448.785 58.0528 447.919 57.4236L443.179 53.98C441.243 52.5732 442.238 49.5106 444.632 49.5106H450.49C451.561 49.5106 452.509 48.8214 452.84 47.8035L454.65 42.2315Z" fill="#10185A"/>
<circle cx="528" cy="42" r="35" fill="#F7EAD6"/>
<circle cx="532" cy="57" r="20" fill="#0CB2F4"/>
<path d="M529.65 43.2315C530.39 40.9554 533.61 40.9554 534.35 43.2315L536.16 48.8035C536.491 49.8214 537.439 50.5106 538.51 50.5106H544.368C546.762 50.5106 547.757 53.5732 545.821 54.98L541.081 58.4236C540.215 59.0528 539.853 60.1679 540.183 61.1858L541.994 66.7578C542.733 69.034 540.128 70.9268 538.192 69.52L533.452 66.0764C532.586 65.4472 531.414 65.4472 530.548 66.0764L525.808 69.52C523.872 70.9268 521.267 69.034 522.006 66.7578L523.817 61.1859C524.147 60.1679 523.785 59.0528 522.919 58.4236L518.179 54.98C516.243 53.5732 517.238 50.5106 519.632 50.5106H525.49C526.561 50.5106 527.509 49.8214 527.84 48.8035L529.65 43.2315Z" fill="#10185A"/>
<circle cx="608" cy="42" r="35" fill="#F7EAD6"/>
<circle cx="604" cy="57" r="20" fill="#0CB2F4"/>
<path d="M601.65 43.2315C602.39 40.9554 605.61 40.9554 606.35 43.2315L608.16 48.8035C608.491 49.8214 609.439 50.5106 610.51 50.5106H616.368C618.762 50.5106 619.757 53.5732 617.821 54.98L613.081 58.4236C612.215 59.0528 611.853 60.1679 612.183 61.1858L613.994 66.7578C614.733 69.034 612.128 70.9268 610.192 69.52L605.452 66.0764C604.586 65.4472 603.414 65.4472 602.548 66.0764L597.808 69.52C595.872 70.9268 593.267 69.034 594.006 66.7578L595.817 61.1859C596.147 60.1679 595.785 59.0528 594.919 58.4236L590.179 54.98C588.243 53.5732 589.238 50.5106 591.632 50.5106H597.49C598.561 50.5106 599.509 49.8214 599.84 48.8035L601.65 43.2315Z" fill="#10185A"/>
<circle cx="688" cy="42" r="35" fill="#F7EAD6"/>
<circle cx="676" cy="53" r="20" fill="#0CB2F4"/>
<path d="M673.65 39.2315C674.39 36.9554 677.61 36.9554 678.35 39.2315L680.16 44.8035C680.491 45.8214 681.439 46.5106 682.51 46.5106H688.368C690.762 46.5106 691.757 49.5732 689.821 50.98L685.081 54.4236C684.215 55.0528 683.853 56.1679 684.183 57.1858L685.994 62.7578C686.733 65.034 684.128 66.9268 682.192 65.52L677.452 62.0764C676.586 61.4472 675.414 61.4472 674.548 62.0764L669.808 65.52C667.872 66.9268 665.267 65.034 666.006 62.7578L667.817 57.1859C668.147 56.1679 667.785 55.0528 666.919 54.4236L662.179 50.98C660.243 49.5732 661.238 46.5106 663.632 46.5106H669.49C670.561 46.5106 671.509 45.8214 671.84 44.8035L673.65 39.2315Z" fill="#10185A"/>
<circle cx="768" cy="42" r="35" fill="#F7EAD6"/>
<circle cx="751" cy="42" r="20" fill="#0CB2F4"/>
<path d="M748.65 28.2315C749.39 25.9554 752.61 25.9554 753.35 28.2315L755.16 33.8035C755.491 34.8214 756.439 35.5106 757.51 35.5106H763.368C765.762 35.5106 766.757 38.5732 764.821 39.98L760.081 43.4236C759.215 44.0528 758.853 45.1679 759.183 46.1858L760.994 51.7578C761.733 54.034 759.128 55.9268 757.192 54.52L752.452 51.0764C751.586 50.4472 750.414 50.4472 749.548 51.0764L744.808 54.52C742.872 55.9268 740.267 54.034 741.006 51.7578L742.817 46.1859C743.147 45.1679 742.785 44.0528 741.919 43.4236L737.179 39.98C735.243 38.5732 736.238 35.5106 738.632 35.5106H744.49C745.561 35.5106 746.509 34.8214 746.84 33.8035L748.65 28.2315Z" fill="#10185A"/>
<circle cx="851" cy="42" r="35" fill="#F7EAD6"/>
<circle cx="837" cy="33" r="20" fill="#0CB2F4"/>
<path d="M834.65 19.2315C835.39 16.9554 838.61 16.9554 839.35 19.2315L841.16 24.8035C841.491 25.8214 842.439 26.5106 843.51 26.5106H849.368C851.762 26.5106 852.757 29.5732 850.821 30.98L846.081 34.4236C845.215 35.0528 844.853 36.1679 845.183 37.1858L846.994 42.7578C847.733 45.034 845.128 46.9268 843.192 45.52L838.452 42.0764C837.586 41.4472 836.414 41.4472 835.548 42.0764L830.808 45.52C828.872 46.9268 826.267 45.034 827.006 42.7578L828.817 37.1859C829.147 36.1679 828.785 35.0528 827.919 34.4236L823.179 30.98C821.243 29.5732 822.238 26.5106 824.632 26.5106H830.49C831.561 26.5106 832.509 25.8214 832.84 24.8035L834.65 19.2315Z" fill="#10185A"/>
<circle cx="931" cy="42" r="35" fill="#F7EAD6"/>
<circle cx="923" cy="28" r="20" fill="#0CB2F4"/>
<path d="M920.65 14.2315C921.39 11.9554 924.61 11.9554 925.35 14.2315L927.16 19.8035C927.491 20.8214 928.439 21.5106 929.51 21.5106H935.368C937.762 21.5106 938.757 24.5732 936.821 25.98L932.081 29.4236C931.215 30.0528 930.853 31.1679 931.183 32.1858L932.994 37.7578C933.733 40.034 931.128 41.9268 929.192 40.52L924.452 37.0764C923.586 36.4472 922.414 36.4472 921.548 37.0764L916.808 40.52C914.872 41.9268 912.267 40.034 913.006 37.7578L914.817 32.1859C915.147 31.1679 914.785 30.0528 913.919 29.4236L909.179 25.98C907.243 24.5732 908.238 21.5106 910.632 21.5106H916.49C917.561 21.5106 918.509 20.8214 918.84 19.8035L920.65 14.2315Z" fill="#10185A"/>
<circle cx="1011" cy="43" r="35" fill="#F7EAD6"/>
<circle cx="1011" cy="27" r="20" fill="#0CB2F4"/>
<path d="M1008.65 13.2315C1009.39 10.9554 1012.61 10.9554 1013.35 13.2315L1015.16 18.8035C1015.49 19.8214 1016.44 20.5106 1017.51 20.5106H1023.37C1025.76 20.5106 1026.76 23.5732 1024.82 24.98L1020.08 28.4236C1019.21 29.0528 1018.85 30.1679 1019.18 31.1858L1020.99 36.7578C1021.73 39.034 1019.13 40.9268 1017.19 39.52L1012.45 36.0764C1011.59 35.4472 1010.41 35.4472 1009.55 36.0764L1004.81 39.52C1002.87 40.9268 1000.27 39.034 1001.01 36.7578L1002.82 31.1859C1003.15 30.1679 1002.79 29.0528 1001.92 28.4236L997.179 24.98C995.243 23.5732 996.238 20.5106 998.632 20.5106H1004.49C1005.56 20.5106 1006.51 19.8214 1006.84 18.8035L1008.65 13.2315Z" fill="#10185A"/>
<circle cx="1091" cy="45" r="35" fill="#F7EAD6"/>
<circle cx="1091" cy="42" r="20" fill="#0CB2F4"/>
<path d="M1088.65 28.2315C1089.39 25.9554 1092.61 25.9554 1093.35 28.2315L1095.16 33.8035C1095.49 34.8214 1096.44 35.5106 1097.51 35.5106H1103.37C1105.76 35.5106 1106.76 38.5732 1104.82 39.98L1100.08 43.4236C1099.21 44.0528 1098.85 45.1679 1099.18 46.1858L1100.99 51.7578C1101.73 54.034 1099.13 55.9268 1097.19 54.52L1092.45 51.0764C1091.59 50.4472 1090.41 50.4472 1089.55 51.0764L1084.81 54.52C1082.87 55.9268 1080.27 54.034 1081.01 51.7578L1082.82 46.1859C1083.15 45.1679 1082.79 44.0528 1081.92 43.4236L1077.18 39.98C1075.24 38.5732 1076.24 35.5106 1078.63 35.5106H1084.49C1085.56 35.5106 1086.51 34.8214 1086.84 33.8035L1088.65 28.2315Z" fill="#10185A"/>
<circle cx="1174" cy="45" r="35" fill="#F7EAD6"/>
<circle cx="1174" cy="56" r="20" fill="#0CB2F4"/>
<path d="M1171.65 42.2315C1172.39 39.9554 1175.61 39.9554 1176.35 42.2315L1178.16 47.8035C1178.49 48.8214 1179.44 49.5106 1180.51 49.5106H1186.37C1188.76 49.5106 1189.76 52.5732 1187.82 53.98L1183.08 57.4236C1182.21 58.0528 1181.85 59.1679 1182.18 60.1858L1183.99 65.7578C1184.73 68.034 1182.13 69.9268 1180.19 68.52L1175.45 65.0764C1174.59 64.4472 1173.41 64.4472 1172.55 65.0764L1167.81 68.52C1165.87 69.9268 1163.27 68.034 1164.01 65.7578L1165.82 60.1859C1166.15 59.1679 1165.79 58.0528 1164.92 57.4236L1160.18 53.98C1158.24 52.5732 1159.24 49.5106 1161.63 49.5106H1167.49C1168.56 49.5106 1169.51 48.8214 1169.84 47.8035L1171.65 42.2315Z" fill="#10185A"/>
<circle cx="1254" cy="45" r="35" fill="#F7EAD6"/>
<circle cx="1254" cy="31" r="20" fill="#0CB2F4"/>
<path d="M1251.65 17.2315C1252.39 14.9554 1255.61 14.9554 1256.35 17.2315L1258.16 22.8035C1258.49 23.8214 1259.44 24.5106 1260.51 24.5106H1266.37C1268.76 24.5106 1269.76 27.5732 1267.82 28.98L1263.08 32.4236C1262.21 33.0528 1261.85 34.1679 1262.18 35.1858L1263.99 40.7578C1264.73 43.034 1262.13 44.9268 1260.19 43.52L1255.45 40.0764C1254.59 39.4472 1253.41 39.4472 1252.55 40.0764L1247.81 43.52C1245.87 44.9268 1243.27 43.034 1244.01 40.7578L1245.82 35.1859C1246.15 34.1679 1245.79 33.0528 1244.92 32.4236L1240.18 28.98C1238.24 27.5732 1239.24 24.5106 1241.63 24.5106H1247.49C1248.56 24.5106 1249.51 23.8214 1249.84 22.8035L1251.65 17.2315Z" fill="#10185A"/>
<circle cx="1329" cy="45" r="35" fill="#F7EAD6"/>
<circle cx="1341" cy="35" r="20" fill="#0CB2F4"/>
<path d="M1338.65 21.2315C1339.39 18.9554 1342.61 18.9554 1343.35 21.2315L1345.16 26.8035C1345.49 27.8214 1346.44 28.5106 1347.51 28.5106H1353.37C1355.76 28.5106 1356.76 31.5732 1354.82 32.98L1350.08 36.4236C1349.21 37.0528 1348.85 38.1679 1349.18 39.1858L1350.99 44.7578C1351.73 47.034 1349.13 48.9268 1347.19 47.52L1342.45 44.0764C1341.59 43.4472 1340.41 43.4472 1339.55 44.0764L1334.81 47.52C1332.87 48.9268 1330.27 47.034 1331.01 44.7578L1332.82 39.1859C1333.15 38.1679 1332.79 37.0528 1331.92 36.4236L1327.18 32.98C1325.24 31.5732 1326.24 28.5106 1328.63 28.5106H1334.49C1335.56 28.5106 1336.51 27.8214 1336.84 26.8035L1338.65 21.2315Z" fill="#10185A"/>
<circle cx="1409" cy="45" r="35" fill="#F7EAD6"/>
<circle cx="1397" cy="55" r="20" fill="#0CB2F4"/>
<path d="M1394.65 41.2315C1395.39 38.9554 1398.61 38.9554 1399.35 41.2315L1401.16 46.8035C1401.49 47.8214 1402.44 48.5106 1403.51 48.5106H1409.37C1411.76 48.5106 1412.76 51.5732 1410.82 52.98L1406.08 56.4236C1405.21 57.0528 1404.85 58.1679 1405.18 59.1858L1406.99 64.7578C1407.73 67.034 1405.13 68.9268 1403.19 67.52L1398.45 64.0764C1397.59 63.4472 1396.41 63.4472 1395.55 64.0764L1390.81 67.52C1388.87 68.9268 1386.27 67.034 1387.01 64.7578L1388.82 59.1859C1389.15 58.1679 1388.79 57.0528 1387.92 56.4236L1383.18 52.98C1381.24 51.5732 1382.24 48.5106 1384.63 48.5106H1390.49C1391.56 48.5106 1392.51 47.8214 1392.84 46.8035L1394.65 41.2315Z" fill="#10185A"/>
</svg>
