<svg width="241" height="270" viewBox="0 0 241 270" fill="none" xmlns="http://www.w3.org/2000/svg">
<rect x="79.1757" y="12.1304" width="80.1182" height="85.9239" fill="#FFBB33"/>
<rect x="119.706" y="98.0544" width="80.1182" height="85.9239" fill="#10185A"/>
<rect x="160.237" y="183.978" width="80.1182" height="85.9239" fill="#A00750"/>
<rect y="183.978" width="80.1182" height="85.9239" fill="#0CB2F4"/>
<rect x="39.5878" y="98.0544" width="80.1182" height="85.9239" fill="#A00750"/>
<rect x="80.1182" y="183.978" width="80.1182" height="85.9239" fill="#F90047"/>
<path d="M102.364 82V23.6H139.324V34.8H113.964V46.48H121.804C125.858 46.48 129.378 47.2267 132.364 48.72C135.351 50.16 137.671 52.2133 139.324 54.88C141.031 57.4933 141.884 60.5867 141.884 64.16C141.884 67.7333 141.031 70.8533 139.324 73.52C137.671 76.1867 135.351 78.2667 132.364 79.76C129.378 81.2533 125.884 82 121.884 82H102.364ZM113.964 72H121.884C124.338 72 126.284 71.3067 127.724 69.92C129.164 68.5333 129.884 66.6667 129.884 64.32C129.884 61.92 129.164 60.0267 127.724 58.64C126.284 57.2 124.338 56.48 121.884 56.48H113.964V72Z" fill="#10185A"/>
<path d="M58.3141 176.091V154.651H60.7941C61.3807 153.691 61.9941 152.385 62.6341 150.731C63.3274 149.025 63.9141 147.078 64.3941 144.891C64.8741 142.651 65.1141 140.251 65.1141 137.691L65.5941 106.491H97.9941V154.651H102.794V176.091H91.5941V164.891H69.5141V176.091H58.3141ZM72.5541 154.651H86.7941V116.731H76.6341L76.3141 137.611C76.2607 141.345 75.8074 144.758 74.9541 147.851C74.1007 150.891 73.3007 153.158 72.5541 154.651Z" fill="#10185A"/>
<path d="M22.5662 253.848V242.568L41.1262 224.648C43.3129 222.515 44.9396 220.541 46.0062 218.728C47.1262 216.915 47.6862 214.941 47.6862 212.808C47.6862 210.461 47.0462 208.648 45.7662 207.368C44.5396 206.088 42.8329 205.448 40.6462 205.448C38.2462 205.448 36.3529 206.168 34.9662 207.608C33.6329 208.995 32.9662 210.941 32.9662 213.448H20.9662C20.9662 209.608 21.7662 206.301 23.3662 203.528C25.0196 200.701 27.3396 198.515 30.3262 196.968C33.3129 195.421 36.8329 194.648 40.8862 194.648C44.6729 194.648 47.9529 195.368 50.7262 196.808C53.5529 198.195 55.7396 200.141 57.2862 202.648C58.8862 205.155 59.6863 208.115 59.6863 211.528C59.6863 215.315 58.7529 218.941 56.8862 222.408C55.0196 225.875 52.0329 229.501 47.9262 233.288L37.3662 243.048H60.3263V253.848H22.5662Z" fill="#10185A"/>
<path d="M120.597 254.8C114.784 254.8 110.171 253.36 106.757 250.48C103.344 247.6 101.584 243.707 101.477 238.8H113.477C113.584 240.56 114.251 241.947 115.477 242.96C116.704 243.92 118.411 244.4 120.597 244.4C122.944 244.4 124.731 243.813 125.957 242.64C127.237 241.413 127.877 239.733 127.877 237.6V231.92C127.877 229.733 127.264 228.08 126.037 226.96C124.811 225.787 122.997 225.2 120.597 225.2C119.157 225.2 117.904 225.413 116.837 225.84C115.824 226.213 115.024 226.8 114.437 227.6H102.837L103.237 195.6H137.717V206.4H114.517L114.357 221.6H116.837L114.277 223.6C114.277 221.147 115.211 219.227 117.077 217.84C118.997 216.4 121.584 215.68 124.837 215.68C129.584 215.68 133.264 217.12 135.877 220C138.544 222.827 139.877 226.8 139.877 231.92V237.6C139.877 242.933 138.171 247.147 134.757 250.24C131.344 253.28 126.624 254.8 120.597 254.8Z" fill="#FBD218"/>
<path d="M188.865 253.848L210.065 206.648H193.745V215.048H181.745V195.448H222.145V206.648L201.665 253.848H188.865Z" fill="#F90047"/>
<path d="M157.845 171.757C153.791 171.757 150.245 171.09 147.205 169.757C144.165 168.423 141.765 166.53 140.005 164.077C138.245 161.623 137.258 158.717 137.045 155.357H149.045C149.258 157.223 150.138 158.69 151.685 159.757C153.285 160.823 155.338 161.357 157.845 161.357C160.458 161.357 162.565 160.663 164.165 159.277C165.818 157.837 166.645 156.05 166.645 153.917C166.645 151.677 165.871 149.89 164.325 148.557C162.778 147.223 160.618 146.557 157.845 146.557H149.445V135.757H157.845C160.511 135.757 162.591 135.063 164.085 133.677C165.578 132.237 166.325 130.53 166.325 128.557C166.325 126.53 165.551 124.957 164.005 123.837C162.511 122.717 160.458 122.157 157.845 122.157C155.658 122.157 153.818 122.69 152.325 123.757C150.831 124.823 149.898 126.29 149.525 128.157H137.525C137.845 124.797 138.911 121.89 140.725 119.437C142.538 116.983 144.938 115.09 147.925 113.757C150.965 112.423 154.431 111.757 158.325 111.757C164.191 111.757 168.858 113.01 172.325 115.517C175.845 118.023 177.605 121.463 177.605 125.837C177.605 128.663 176.965 131.17 175.685 133.357C174.458 135.49 172.671 137.17 170.325 138.397C167.978 139.57 165.151 140.157 161.845 140.157V138.957C165.205 138.903 168.138 139.49 170.645 140.717C173.205 141.943 175.178 143.703 176.565 145.997C177.951 148.237 178.645 150.85 178.645 153.837C178.645 157.41 177.791 160.557 176.085 163.277C174.378 165.943 171.951 168.023 168.805 169.517C165.711 171.01 162.058 171.757 157.845 171.757Z" fill="#0CB2F4"/>
</svg>
