<svg width="396" height="388" viewBox="0 0 396 388" fill="none" xmlns="http://www.w3.org/2000/svg">
<rect x="239.613" y="0.000274658" width="243.886" height="312.174" transform="rotate(50.1356 239.613 0.000274658)" fill="#F7EAD6"/>
<path d="M215.864 42.7145L232.458 28.8568L235.306 32.2667L228.941 37.5819L232.13 41.4009L238.495 36.0857L241.342 39.4955L224.748 53.3532L221.9 49.9433L228.947 44.0586L225.758 40.2396L218.711 46.1243L215.864 42.7145ZM227.512 56.6632L244.106 42.8055L252.649 53.035L249.739 55.4649L243.987 48.577L240.259 51.6902L245.346 57.7825L242.437 60.2123L237.349 54.1201L233.212 57.575L238.964 64.4629L236.054 66.8927L227.512 56.6632ZM237.547 68.911L240.616 66.3482L241.185 67.0302C241.514 67.4242 241.998 67.5729 242.638 67.4762C243.277 67.3795 243.937 67.0602 244.616 66.5186L256.134 57.2089L264.107 66.7564L247.513 80.6141L244.665 77.2042L258.077 66.0042L255.742 63.2081L247.445 69.9057C245.795 71.2573 244.138 71.9213 242.472 71.8978C240.834 71.8767 239.445 71.1842 238.306 69.8203L237.547 68.911ZM254.226 89.115C253.302 88.0087 252.703 86.8755 252.429 85.7155C252.17 84.5428 252.221 83.419 252.584 82.3443C252.975 81.272 253.671 80.3182 254.671 79.483L261.718 73.5982C262.718 72.763 263.773 72.255 264.882 72.0744C266.02 71.8963 267.135 72.0456 268.227 72.5222C269.335 72.9862 270.351 73.7714 271.275 74.8777C272.211 75.9991 272.803 77.1386 273.049 78.2962C273.323 79.4563 273.265 80.5724 272.874 81.6447C272.511 82.7194 271.83 83.6744 270.83 84.5097L263.783 90.3945C262.782 91.2297 261.714 91.7364 260.576 91.9145C259.467 92.0952 258.358 91.9535 257.25 91.4895C256.17 91.0279 255.162 90.2365 254.226 89.115ZM257.181 86.6472C257.75 87.3292 258.349 87.6913 258.976 87.7336C259.63 87.7785 260.284 87.5288 260.935 86.9846L267.982 81.0999C268.649 80.543 269.017 79.9524 269.088 79.3279C269.158 78.7034 268.902 78.0426 268.32 77.3455C267.737 76.6484 267.133 76.2786 266.506 76.2363C265.879 76.194 265.232 76.4512 264.565 77.0081L257.518 82.8928C256.867 83.437 256.498 84.0277 256.413 84.6648C256.355 85.3044 256.611 85.9652 257.181 86.6472ZM260.938 96.6907L277.532 82.8331L280.74 86.6748L276.784 92.564C276.378 93.1863 276.001 93.7061 275.655 94.1236C275.322 94.5562 275.079 94.8497 274.925 95.0041C275.104 94.88 275.43 94.6851 275.902 94.4191C276.387 94.1684 276.966 93.891 277.638 93.5869L284.119 90.7211L287.328 94.5629L270.733 108.421L268.132 105.306L272.679 101.51C273.512 100.814 274.396 100.101 275.331 99.372C276.293 98.6455 277.255 97.9329 278.214 97.2342C279.174 96.5355 280.08 95.895 280.931 95.3127C281.798 94.7177 282.552 94.2037 283.194 93.7708L274.097 98.1257L271.686 95.2387L277.518 86.9739C277.02 87.5179 276.409 88.1568 275.684 88.8907C274.975 89.6119 274.19 90.3825 273.332 91.2024C272.501 92.0248 271.635 92.8511 270.733 93.6812C269.831 94.5113 268.949 95.287 268.085 96.0084L263.538 99.805L260.938 96.6907ZM271.997 109.935L291.99 100.146L295.597 104.465L282.438 122.437L279.534 118.959L282.62 115.032L279.317 111.076L274.902 113.413L271.997 109.935ZM282.52 109.366L284.854 112.163L288.191 108.026C288.678 107.439 289.152 106.851 289.611 106.261C290.098 105.674 290.476 105.218 290.744 104.891C290.375 105.096 289.866 105.38 289.216 105.742C288.58 106.119 287.923 106.488 287.246 106.848L282.52 109.366ZM284.044 124.361L300.639 110.503L303.145 113.504L295.87 119.578C295.355 120.009 294.737 120.486 294.018 121.01C293.31 121.549 292.604 122.074 291.899 122.586C291.195 123.097 290.573 123.539 290.035 123.911L306.429 117.436L309.751 121.415L293.156 135.272L290.65 132.272L297.47 126.577C298.001 126.134 298.642 125.624 299.395 125.047C300.16 124.485 300.94 123.924 301.733 123.364C302.526 122.805 303.214 122.32 303.798 121.91L287.366 128.339L284.044 124.361ZM306.786 114.63C305.748 113.387 305.217 112.12 305.193 110.828C305.184 109.524 305.688 108.448 306.703 107.6L308.886 110.214C308.462 110.568 308.233 111.003 308.201 111.519C308.184 112.022 308.371 112.509 308.764 112.979C309.169 113.463 309.62 113.742 310.118 113.815C310.632 113.875 311.1 113.728 311.525 113.374L313.708 115.988C312.692 116.836 311.544 117.139 310.262 116.898C308.995 116.644 307.836 115.888 306.786 114.63ZM295.522 138.105L312.116 124.247L314.964 127.657L308.53 133.029L309.878 134.643L318.589 131.999L321.684 135.704L310.903 138.92L305.203 149.698L302.071 145.947L306.741 137.263L305.393 135.649L298.369 141.515L295.522 138.105ZM306.145 150.826L326.137 141.037L329.744 145.357L316.586 163.329L313.681 159.851L316.768 155.923L313.464 151.967L309.049 154.304L306.145 150.826ZM316.667 150.258L319.002 153.054L322.338 148.917C322.826 148.33 323.299 147.742 323.758 147.153C324.246 146.566 324.623 146.109 324.891 145.782C324.522 145.988 324.013 146.271 323.364 146.633C322.727 147.011 322.07 147.379 321.393 147.739L316.667 150.258ZM327.254 164.784L334.433 157.902L337.842 155.054L340.842 158.646L337.432 161.494L329.38 167.33L327.254 164.784ZM322.349 170.462C321.919 169.947 321.715 169.41 321.737 168.851C321.787 168.295 322.047 167.82 322.517 167.428C323.002 167.023 323.515 166.852 324.056 166.915C324.609 166.992 325.101 167.289 325.532 167.804L326.101 168.486C326.531 169.001 326.729 169.531 326.694 170.074C326.672 170.633 326.419 171.115 325.934 171.52C325.449 171.925 324.929 172.088 324.376 172.011C323.835 171.948 323.343 171.651 322.9 171.121L322.349 170.462Z" fill="#A00750"/>
<path d="M194.501 59.0992L201.613 53.1602L205.371 57.6612L204.007 58.8002L201.428 55.7119L200.006 56.8997L200.803 57.8544C201.215 58.348 201.482 58.8526 201.604 59.3682C201.733 59.8784 201.719 60.3697 201.562 60.8422C201.417 61.3158 201.127 61.7343 200.692 62.0977C200.257 62.4611 199.79 62.6745 199.292 62.7378C198.799 62.8077 198.31 62.7367 197.824 62.5248C197.339 62.313 196.892 61.9635 196.486 61.4764L194.501 59.0992ZM196.898 59.4949L197.703 60.4594C197.953 60.7582 198.235 60.9248 198.551 60.9591C198.866 60.9934 199.167 60.8913 199.452 60.6526C199.745 60.4086 199.902 60.1284 199.924 59.812C199.953 59.4902 199.843 59.1799 199.594 58.8811L198.788 57.9166L196.898 59.4949ZM197.657 65.6512L200.268 63.4708L200.52 63.7729C200.697 63.7467 200.918 63.6885 201.185 63.5983C201.463 63.5092 201.76 63.3826 202.075 63.2187C202.396 63.0494 202.713 62.8345 203.025 62.5742L206.873 59.4598L210.168 63.4054L204.303 68.3031L204.791 68.8876L202.18 71.0679L201.041 69.704L202.405 68.565L200.16 65.8761L198.796 67.0151L197.657 65.6512ZM201.716 65.205L203.164 66.9391L207.782 63.0828L206.749 61.8456L204.173 63.93C203.713 64.3032 203.252 64.5951 202.788 64.8057C202.331 65.011 201.974 65.144 201.716 65.205ZM206.063 73.1436C205.651 72.6499 205.372 72.1502 205.225 71.6444C205.078 71.1386 205.065 70.6538 205.184 70.19C205.304 69.7262 205.558 69.3104 205.945 68.9427L207.166 70.4041C206.96 70.6199 206.871 70.8762 206.898 71.173C206.931 71.4764 207.075 71.7807 207.33 72.0859C207.596 72.4042 207.894 72.5902 208.226 72.644C208.569 72.6989 208.871 72.6179 209.131 72.401C209.404 72.1732 209.542 71.8973 209.548 71.5734C209.553 71.2494 209.414 70.9186 209.132 70.5808L208.278 69.5579L209.593 68.4596L210.447 69.4825C210.719 69.8073 211.015 69.9901 211.335 70.0309C211.662 70.0663 211.946 69.9837 212.187 69.783C212.433 69.5769 212.546 69.3227 212.525 69.0205C212.51 68.7247 212.369 68.4177 212.104 68.0995C211.881 67.8332 211.629 67.6633 211.347 67.59C211.066 67.5166 210.792 67.5521 210.527 67.6964L209.306 66.2351C209.748 65.9324 210.211 65.7667 210.694 65.738C211.177 65.7093 211.652 65.8091 212.118 66.0372C212.589 66.2718 213.023 66.6262 213.419 67.1003C214.015 67.8147 214.337 68.5105 214.385 69.1876C214.437 69.8712 214.197 70.4353 213.665 70.8801C213.321 71.1675 212.95 71.3445 212.554 71.411C212.169 71.4786 211.783 71.4318 211.395 71.2708C211.013 71.1044 210.655 70.8198 210.318 70.4171L210.464 70.2951C210.813 70.6988 211.039 71.1157 211.145 71.5457C211.256 71.9822 211.242 72.4015 211.104 72.8036C210.972 73.2003 210.725 73.5505 210.361 73.8542C209.926 74.2176 209.456 74.4337 208.951 74.5024C208.453 74.5658 207.953 74.4818 207.451 74.2505C206.954 74.0256 206.492 73.6567 206.063 73.1436ZM209.168 76.6631L210.541 75.5159L214.611 75.9538C215.093 76.0031 215.499 76.0006 215.828 75.9461C216.163 75.898 216.46 75.7656 216.72 75.5486C217.006 75.31 217.162 75.0476 217.187 74.7616C217.218 74.482 217.123 74.2091 216.9 73.9428C216.656 73.6505 216.376 73.4932 216.06 73.4708C215.755 73.4494 215.451 73.5662 215.145 73.8211L213.925 72.3597C214.393 71.9692 214.877 71.7304 215.377 71.6432C215.889 71.5571 216.392 71.6172 216.884 71.8237C217.376 72.0301 217.828 72.3801 218.24 72.8737C218.625 73.3349 218.871 73.8075 218.978 74.2917C219.096 74.7769 219.082 75.2412 218.934 75.6845C218.791 76.1342 218.512 76.5327 218.096 76.8798C217.635 77.2649 217.099 77.52 216.487 77.6453C215.875 77.7705 215.129 77.7756 214.25 77.6606L211.988 77.3671L214.323 80.1632L213.008 81.2615L209.168 76.6631ZM215.812 84.817C215.22 84.1091 214.927 83.4009 214.93 82.6923C214.934 81.9837 215.229 81.3735 215.816 80.8615L217.036 82.3229C216.832 82.5148 216.731 82.737 216.733 82.9895C216.741 83.2365 216.856 83.4931 217.078 83.7594C217.317 84.0452 217.57 84.2031 217.837 84.2332C218.117 84.2643 218.387 84.1714 218.646 83.9544L219.338 83.3768C219.604 83.1544 219.743 82.9116 219.755 82.6483C219.773 82.3796 219.66 82.0991 219.416 81.8069C219.27 81.6315 219.116 81.5006 218.956 81.4141C218.807 81.3286 218.655 81.2909 218.497 81.3008L217.318 79.8881L221.255 76.6826L224.762 80.8816L223.447 81.9799L221.087 79.1546L219.22 80.6809L219.472 80.9829L218.968 80.8745C219.267 80.625 219.596 80.5434 219.955 80.6297C220.325 80.7171 220.676 80.9589 221.007 81.3551C221.489 81.9331 221.688 82.5277 221.603 83.1389C221.53 83.7511 221.182 84.3175 220.559 84.8382L219.867 85.4158C219.217 85.9582 218.531 86.1788 217.807 86.0777C217.09 85.9712 216.424 85.551 215.812 84.817ZM219.445 88.9698L227.349 86.7515L225.689 84.7641L224.666 85.6183L223.446 84.157L225.833 82.1638L229.941 87.0837L228.577 88.2226L220.746 90.5286L219.445 88.9698Z" fill="#1C2552"/>
<path d="M168.108 74.8749C167.75 74.4463 167.517 74.0018 167.408 73.5414C167.304 73.0876 167.332 72.6455 167.491 72.2152C167.656 71.7795 167.95 71.3854 168.372 71.0329L169.834 69.8125C170.262 69.4546 170.702 69.2358 171.154 69.1563C171.606 69.0767 172.046 69.1283 172.474 69.3109C172.907 69.5001 173.303 69.809 173.661 70.2376C174.176 70.8547 174.426 71.4898 174.409 72.1431C174.392 72.7965 174.106 73.3715 173.551 73.8683L172.819 72.9915C173.147 72.6845 173.312 72.3479 173.315 71.9818C173.33 71.6166 173.186 71.2522 172.882 70.8885C172.562 70.5053 172.196 70.2922 171.786 70.2493C171.382 70.201 170.978 70.3449 170.576 70.6812L169.104 71.9097C168.702 72.246 168.485 72.62 168.454 73.0317C168.423 73.4434 168.567 73.8409 168.887 74.2241C169.191 74.5878 169.524 74.7949 169.886 74.8455C170.253 74.9025 170.614 74.7998 170.968 74.5372L171.7 75.414C171.112 75.8718 170.495 76.0507 169.85 75.9506C169.204 75.8505 168.623 75.492 168.108 74.8749ZM172.701 80.1773L177.29 76.3454L175.663 74.397L176.432 73.7542L180.419 78.528L179.649 79.1707L178.022 77.2223L173.433 81.0541L172.701 80.1773ZM175.199 86.7332L177.943 85.7813L181.311 79.5959L182.124 80.5701L179.853 84.5832C179.781 84.7209 179.683 84.8743 179.559 85.0434C179.443 85.2072 179.343 85.3454 179.261 85.4582C179.386 85.3974 179.54 85.3241 179.722 85.2383C179.911 85.1471 180.076 85.0749 180.219 85.0216L184.508 83.4246L185.297 84.3696L175.98 87.6684L175.199 86.7332ZM179.263 90.8075L181.377 89.0421L181.743 89.4805C181.946 89.4987 182.259 89.4307 182.681 89.2764C183.109 89.1286 183.575 88.8491 184.081 88.438L186.848 86.2266L189.769 89.7241L185.16 93.5723L185.73 94.2542L183.616 96.0197L182.965 95.2403L184.329 94.1013L181.278 90.4479L179.914 91.5869L179.263 90.8075ZM182.516 90.406L184.428 92.6955L188.257 89.4982L186.76 87.7056L184.769 89.3019C184.251 89.7238 183.789 90.0158 183.384 90.1776C182.979 90.3394 182.69 90.4156 182.516 90.406ZM187.605 98.2219C187.252 97.7998 187.027 97.359 186.93 96.8998C186.839 96.447 186.873 96.0055 187.031 95.5752C187.202 95.146 187.492 94.7605 187.901 94.4188L189.363 93.1985C189.778 92.8514 190.209 92.6348 190.656 92.5488C191.107 92.4692 191.548 92.5148 191.977 92.6855C192.412 92.8628 192.805 93.1625 193.158 93.5846C193.51 94.0068 193.732 94.4443 193.824 94.897C193.921 95.3563 193.887 95.7978 193.723 96.2216C193.564 96.6519 193.277 97.0406 192.861 97.3877L191.916 98.1769L189.134 94.845L188.617 95.2762C188.195 95.6287 187.96 96.0071 187.911 96.4112C187.87 96.81 188.014 97.2074 188.345 97.6036C188.627 97.9414 188.913 98.1653 189.204 98.2755C189.501 98.3803 189.788 98.3551 190.067 98.1999L190.799 99.0767C190.302 99.3925 189.76 99.47 189.174 99.3092C188.6 99.1494 188.076 98.787 187.605 98.2219ZM191.785 96.8314L192.145 96.5304C192.567 96.1779 192.802 95.7995 192.851 95.3953C192.905 94.9977 192.763 94.5975 192.427 94.1948C192.096 93.7986 191.728 93.5883 191.321 93.5638C190.915 93.5393 190.501 93.7033 190.079 94.0558L189.796 94.2918L191.919 96.8345L191.785 96.8314ZM190.904 101.975L196.262 97.5007L196.995 98.3775L194.764 100.241L196.651 102.501L198.882 100.638L199.614 101.515L194.256 105.989L193.524 105.112L195.852 103.168L193.965 100.908L191.636 102.852L190.904 101.975ZM197.092 109.385L201.681 105.554L200.054 103.605L200.823 102.962L204.81 107.736L204.04 108.379L202.413 106.43L197.824 110.262L197.092 109.385ZM206.331 112.33C206.13 112.09 206.032 111.84 206.038 111.583C206.049 111.319 206.165 111.095 206.386 110.911C206.607 110.727 206.845 110.655 207.1 110.696C207.361 110.731 207.592 110.869 207.792 111.109C207.998 111.356 208.093 111.608 208.076 111.865C208.071 112.123 207.958 112.344 207.737 112.528C207.516 112.713 207.275 112.787 207.014 112.752C206.765 112.717 206.537 112.577 206.331 112.33ZM202.239 115.747C202.038 115.506 201.941 115.257 201.946 115C201.957 114.736 202.074 114.512 202.295 114.328C202.515 114.144 202.753 114.072 203.008 114.113C203.269 114.148 203.5 114.286 203.7 114.526C203.907 114.773 204.001 115.025 203.984 115.282C203.979 115.54 203.866 115.761 203.645 115.945C203.424 116.13 203.183 116.204 202.922 116.169C202.673 116.134 202.445 115.994 202.239 115.747ZM210.547 125.498L217.659 119.559L221.117 123.699L220.318 124.366L217.592 121.103L211.279 126.374L210.547 125.498ZM216.874 133.272C216.521 132.849 216.296 132.409 216.199 131.949C216.108 131.497 216.142 131.055 216.301 130.625C216.471 130.196 216.761 129.81 217.17 129.469L218.632 128.248C219.047 127.901 219.478 127.685 219.925 127.598C220.376 127.519 220.817 127.565 221.246 127.735C221.681 127.912 222.074 128.212 222.427 128.634C222.779 129.057 223.001 129.494 223.093 129.947C223.19 130.406 223.156 130.848 222.992 131.271C222.833 131.702 222.546 132.09 222.13 132.437L221.185 133.227L218.403 129.895L217.886 130.326C217.464 130.678 217.229 131.057 217.181 131.461C217.139 131.86 217.283 132.257 217.614 132.653C217.896 132.991 218.182 133.215 218.473 133.325C218.77 133.43 219.057 133.405 219.336 133.25L220.068 134.126C219.571 134.442 219.029 134.52 218.443 134.359C217.869 134.199 217.346 133.837 216.874 133.272ZM221.054 131.881L221.414 131.58C221.836 131.228 222.072 130.849 222.12 130.445C222.174 130.047 222.032 129.647 221.696 129.245C221.365 128.848 220.997 128.638 220.59 128.613C220.184 128.589 219.77 128.753 219.348 129.106L219.065 129.341L221.189 131.884L221.054 131.881ZM221.483 138.594L226.072 134.762L224.445 132.813L225.214 132.17L229.201 136.944L228.431 137.587L226.804 135.638L222.215 139.47L221.483 138.594ZM224.905 142.691L230.263 138.217L231.256 139.405L229.786 141.823C229.638 142.068 229.484 142.307 229.325 142.539C229.173 142.765 229.052 142.938 228.963 143.056C229.095 142.99 229.284 142.899 229.529 142.782C229.785 142.667 230.048 142.553 230.316 142.439L232.916 141.393L233.908 142.581L228.55 147.056L227.842 146.208L228.67 145.517C228.962 145.273 229.283 145.01 229.633 144.729C229.983 144.448 230.336 144.165 230.692 143.878C231.053 143.598 231.395 143.335 231.718 143.087C232.047 142.835 232.335 142.611 232.58 142.417L228.734 144.009L227.961 143.083L230.185 139.588C229.904 139.845 229.548 140.159 229.118 140.529C228.694 140.905 228.248 141.295 227.779 141.697C227.316 142.106 226.87 142.489 226.441 142.847L225.613 143.539L224.905 142.691ZM231.118 150.329C230.646 149.764 230.417 149.2 230.432 148.636C230.453 148.067 230.71 147.577 231.204 147.165C231.704 146.747 232.232 146.581 232.789 146.667C233.346 146.753 233.855 147.073 234.316 147.625L235.699 149.281L236.235 148.833C236.567 148.557 236.736 148.245 236.743 147.897C236.762 147.55 236.62 147.195 236.316 146.831C236.05 146.513 235.76 146.304 235.444 146.203C235.136 146.097 234.854 146.123 234.599 146.28L233.867 145.404C234.377 145.077 234.926 144.988 235.513 145.137C236.101 145.286 236.63 145.643 237.102 146.208C237.617 146.825 237.865 147.445 237.845 148.068C237.825 148.691 237.542 149.23 236.997 149.686L233.314 152.761L232.598 151.904L233.621 151.049L233.499 150.903L233.767 150.927C233.378 151.253 232.942 151.358 232.459 151.242C231.983 151.134 231.535 150.829 231.118 150.329ZM231.988 149.966C232.336 150.381 232.724 150.635 233.154 150.728C233.585 150.821 233.962 150.732 234.287 150.461L235.047 149.826L233.68 148.189C233.436 147.897 233.162 147.734 232.859 147.701C232.555 147.668 232.264 147.768 231.985 148.001C231.686 148.25 231.533 148.549 231.526 148.897C231.53 149.246 231.685 149.602 231.988 149.966ZM234.808 154.55L240.166 150.075L240.898 150.952L238.667 152.815L240.555 155.075L242.786 153.212L243.518 154.089L238.16 158.564L237.428 157.687L239.756 155.742L237.869 153.482L235.54 155.427L234.808 154.55ZM241.281 162.499C240.923 162.071 240.689 161.626 240.581 161.166C240.477 160.712 240.505 160.27 240.664 159.84C240.829 159.404 241.123 159.01 241.545 158.657L243.006 157.437C243.435 157.079 243.875 156.86 244.327 156.781C244.779 156.701 245.219 156.753 245.647 156.935C246.08 157.124 246.476 157.433 246.834 157.862C247.349 158.479 247.599 159.114 247.582 159.767C247.565 160.421 247.279 160.996 246.724 161.493L245.992 160.616C246.32 160.309 246.485 159.972 246.488 159.606C246.503 159.241 246.358 158.876 246.055 158.513C245.735 158.13 245.369 157.917 244.959 157.874C244.554 157.825 244.151 157.969 243.748 158.306L242.277 159.534C241.875 159.87 241.658 160.244 241.627 160.656C241.596 161.068 241.74 161.465 242.06 161.848C242.364 162.212 242.697 162.419 243.059 162.47C243.426 162.527 243.787 162.424 244.141 162.162L244.873 163.038C244.285 163.496 243.668 163.675 243.022 163.575C242.377 163.475 241.796 163.116 241.281 162.499ZM244.589 166.262L249.947 161.788L250.679 162.665L248.468 164.511L249.232 165.427L252.746 165.139L253.584 166.143L249.526 166.472L248.25 170.646L247.395 169.623L248.481 166.071L247.708 165.146L245.321 167.139L244.589 166.262ZM250.63 173.695C250.159 173.13 249.93 172.566 249.945 172.003C249.966 171.434 250.223 170.943 250.717 170.531C251.217 170.114 251.745 169.948 252.302 170.034C252.859 170.12 253.368 170.439 253.829 170.991L255.212 172.647L255.748 172.2C256.079 171.923 256.249 171.611 256.256 171.263C256.275 170.917 256.133 170.561 255.829 170.198C255.563 169.879 255.273 169.67 254.957 169.57C254.648 169.464 254.367 169.489 254.112 169.647L253.38 168.77C253.89 168.443 254.439 168.355 255.026 168.503C255.613 168.652 256.143 169.009 256.615 169.574C257.13 170.191 257.378 170.811 257.358 171.434C257.338 172.057 257.055 172.597 256.509 173.052L252.827 176.128L252.111 175.27L253.134 174.416L253.012 174.27L253.28 174.294C252.89 174.619 252.454 174.724 251.972 174.609C251.495 174.5 251.048 174.195 250.63 173.695ZM251.501 173.332C251.848 173.748 252.237 174.002 252.667 174.095C253.097 174.187 253.475 174.098 253.8 173.827L254.559 173.192L253.193 171.556C252.949 171.263 252.675 171.101 252.372 171.067C252.068 171.034 251.777 171.134 251.498 171.367C251.199 171.617 251.046 171.915 251.039 172.263C251.043 172.612 251.197 172.968 251.501 173.332ZM254.044 177.585L257.257 177.234C257.012 176.743 256.935 176.268 257.024 175.807C257.119 175.353 257.374 174.953 257.79 174.606C258.316 174.166 258.872 173.994 259.459 174.089C260.05 174.19 260.598 174.543 261.103 175.147L263.031 177.456L257.673 181.93L256.94 181.053L258.937 179.386L257.953 178.207L254.898 178.608L254.044 177.585ZM258.521 177.303L259.717 178.735L261.519 177.23L260.323 175.798C260.052 175.473 259.757 175.284 259.437 175.231C259.124 175.173 258.824 175.263 258.539 175.502C258.259 175.735 258.117 176.014 258.112 176.338C258.113 176.656 258.25 176.978 258.521 177.303ZM263.719 189.171L272.377 185.083L273.361 186.262L267.787 194.042L267.047 193.156L268.546 191.11L266.748 188.957L264.468 190.067L263.719 189.171ZM267.635 188.514L269.132 190.306L270.868 187.93C271.197 187.479 271.477 187.108 271.707 186.816C271.938 186.524 272.09 186.337 272.163 186.253C272.068 186.311 271.856 186.427 271.528 186.602C271.2 186.776 270.788 186.983 270.292 187.221L267.635 188.514ZM268.326 194.826L269.144 194.143L269.29 194.318C269.54 194.617 269.83 194.727 270.162 194.649C270.499 194.577 270.972 194.292 271.581 193.794L274.631 191.347L277.665 194.98L272.307 199.455L271.575 198.578L276.134 194.771L274.556 192.881L272.275 194.703C271.699 195.162 271.187 195.48 270.738 195.655C270.295 195.838 269.892 195.877 269.529 195.772C269.172 195.674 268.833 195.433 268.513 195.05L268.326 194.826ZM273.833 201.283L279.192 196.808L279.891 197.646L276.969 200.087C276.78 200.244 276.577 200.403 276.358 200.564C276.145 200.731 275.936 200.883 275.731 201.021C275.539 201.16 275.369 201.274 275.223 201.363L281.608 199.702L282.544 200.822L277.185 205.297L276.486 204.459L279.408 202.018C279.597 201.861 279.797 201.699 280.011 201.532C280.229 201.371 280.441 201.222 280.646 201.084C280.857 200.941 281.03 200.824 281.164 200.734L274.769 202.403L273.833 201.283ZM278.712 207.124L284.07 202.65L284.802 203.527L282.571 205.39L284.459 207.65L286.69 205.787L287.422 206.664L282.063 211.138L281.331 210.261L283.66 208.317L281.772 206.057L279.444 208.001L278.712 207.124ZM284.778 214.587C284.306 214.022 284.077 213.457 284.092 212.894C284.113 212.325 284.37 211.835 284.864 211.422C285.364 211.005 285.893 210.839 286.45 210.925C287.006 211.011 287.515 211.33 287.976 211.882L289.36 213.539L289.895 213.091C290.227 212.815 290.396 212.502 290.403 212.155C290.422 211.808 290.28 211.453 289.976 211.089C289.71 210.771 289.42 210.561 289.104 210.461C288.796 210.355 288.514 210.381 288.26 210.538L287.527 209.661C288.037 209.335 288.586 209.246 289.173 209.395C289.761 209.544 290.29 209.901 290.762 210.466C291.277 211.083 291.525 211.703 291.505 212.326C291.485 212.949 291.202 213.488 290.657 213.944L286.974 217.019L286.258 216.162L287.281 215.307L287.159 215.161L287.427 215.185C287.038 215.511 286.602 215.616 286.119 215.5C285.643 215.391 285.195 215.087 284.778 214.587ZM285.648 214.223C285.996 214.639 286.384 214.893 286.814 214.986C287.245 215.079 287.622 214.99 287.947 214.718L288.707 214.084L287.34 212.447C287.096 212.155 286.822 211.992 286.519 211.959C286.215 211.925 285.924 212.025 285.645 212.259C285.346 212.508 285.193 212.807 285.186 213.155C285.191 213.503 285.345 213.86 285.648 214.223Z" fill="#1C2552"/>
<path d="M146.302 89.6944L151.661 85.2198L152.393 86.0966L150.181 87.9434L150.946 88.8592L154.459 88.5712L155.297 89.5746L151.24 89.9038L149.963 94.0784L149.109 93.0555L150.194 89.5035L149.421 88.578L147.035 90.5712L146.302 89.6944ZM150.086 97.7895L152.83 96.8376L156.197 90.6522L157.011 91.6265L154.74 95.6396C154.667 95.7773 154.569 95.9307 154.446 96.0998C154.329 96.2635 154.23 96.4018 154.147 96.5145C154.273 96.4537 154.427 96.3804 154.609 96.2947C154.797 96.2035 154.963 96.1312 155.106 96.078L159.394 94.481L160.184 95.426L150.867 98.7248L150.086 97.7895ZM154.264 102.793L161.376 96.8543L162.109 97.7311L161.086 98.5854L161.232 98.7607L160.881 98.7562C161.29 98.4145 161.723 98.2792 162.179 98.3502C162.647 98.4223 163.066 98.6792 163.434 99.1209C163.885 99.66 164.064 100.238 163.973 100.854C163.893 101.472 163.545 102.038 162.928 102.554L161.359 103.863C160.95 104.205 160.534 104.426 160.11 104.526C159.692 104.633 159.291 104.621 158.906 104.49C158.527 104.366 158.185 104.122 157.881 103.758C157.518 103.323 157.343 102.869 157.355 102.395C157.368 101.922 157.575 101.517 157.978 101.181L157.92 101.527L157.757 101.332L156.555 102.368L154.997 103.67L154.264 102.793ZM158.397 102.831C158.706 103.202 159.058 103.398 159.452 103.422C159.852 103.452 160.26 103.293 160.676 102.946L162.137 101.726C162.553 101.379 162.782 101.006 162.823 100.607C162.871 100.215 162.74 99.8334 162.431 99.4632C162.132 99.106 161.78 98.9151 161.374 98.8906C160.967 98.8661 160.563 99.022 160.16 99.3583L158.699 100.579C158.296 100.915 158.071 101.285 158.022 101.689C157.974 102.093 158.099 102.474 158.397 102.831ZM162.101 108.811C161.629 108.246 161.4 107.681 161.415 107.118C161.436 106.549 161.693 106.059 162.187 105.646C162.687 105.229 163.215 105.063 163.772 105.149C164.329 105.235 164.838 105.554 165.299 106.106L166.682 107.763L167.218 107.315C167.549 107.039 167.719 106.726 167.726 106.379C167.745 106.032 167.603 105.677 167.299 105.313C167.033 104.995 166.743 104.785 166.427 104.685C166.118 104.579 165.837 104.605 165.582 104.762L164.85 103.885C165.36 103.559 165.909 103.47 166.496 103.619C167.083 103.768 167.613 104.125 168.085 104.69C168.6 105.307 168.848 105.927 168.828 106.55C168.808 107.173 168.525 107.712 167.98 108.168L164.297 111.243L163.581 110.386L164.604 109.531L164.482 109.385L164.75 109.409C164.36 109.735 163.924 109.84 163.442 109.724C162.965 109.615 162.518 109.311 162.101 108.811ZM162.971 108.447C163.318 108.863 163.707 109.117 164.137 109.21C164.567 109.303 164.945 109.213 165.27 108.942L166.03 108.308L164.663 106.671C164.419 106.379 164.145 106.216 163.842 106.183C163.538 106.149 163.247 106.249 162.968 106.483C162.669 106.732 162.516 107.031 162.509 107.379C162.513 107.727 162.668 108.084 162.971 108.447ZM167.101 114.6L171.689 110.768L170.062 108.82L170.832 108.177L174.818 112.951L174.049 113.594L172.421 111.645L167.833 115.477L167.101 114.6ZM172.267 120.945C171.909 120.517 171.681 120.079 171.583 119.631C171.485 119.184 171.515 118.745 171.674 118.315C171.845 117.886 172.141 117.495 172.564 117.142L173.986 115.954C174.415 115.596 174.852 115.374 175.298 115.288C175.75 115.209 176.187 115.257 176.61 115.433C177.033 115.609 177.423 115.912 177.781 116.341C178.139 116.769 178.367 117.207 178.465 117.655C178.563 118.102 178.53 118.537 178.366 118.961C178.207 119.392 177.916 119.783 177.494 120.135L176.062 121.331C175.64 121.684 175.2 121.903 174.741 121.988C174.295 122.074 173.861 122.029 173.438 121.853C173.015 121.676 172.625 121.374 172.267 120.945ZM173.046 120.294C173.366 120.678 173.723 120.887 174.116 120.922C174.51 120.958 174.914 120.802 175.33 120.455L176.752 119.267C177.168 118.92 177.393 118.549 177.429 118.156C177.464 117.763 177.322 117.375 177.002 116.991C176.687 116.615 176.33 116.405 175.932 116.364C175.538 116.328 175.134 116.484 174.718 116.831L173.296 118.019C172.88 118.366 172.655 118.736 172.619 119.13C172.589 119.529 172.732 119.918 173.046 120.294ZM173.777 126.16L180.889 120.221L181.621 121.098L180.598 121.952L180.745 122.127L180.394 122.123C180.803 121.781 181.236 121.646 181.692 121.717C182.16 121.789 182.578 122.046 182.947 122.487C183.397 123.026 183.577 123.604 183.485 124.221C183.406 124.838 183.058 125.405 182.44 125.92L180.872 127.23C180.463 127.572 180.046 127.793 179.623 127.893C179.205 127.999 178.803 127.987 178.419 127.857C178.039 127.732 177.698 127.488 177.394 127.125C177.031 126.689 176.855 126.235 176.868 125.762C176.88 125.288 177.088 124.883 177.491 124.547L177.432 124.893L177.27 124.698L176.068 125.735L174.509 127.037L173.777 126.16ZM177.91 126.198C178.219 126.568 178.571 126.765 178.965 126.788C179.365 126.818 179.773 126.66 180.188 126.312L181.65 125.092C182.065 124.745 182.294 124.372 182.336 123.973C182.383 123.581 182.252 123.2 181.943 122.83C181.645 122.472 181.293 122.282 180.886 122.257C180.48 122.233 180.076 122.388 179.673 122.725L178.212 123.945C177.809 124.281 177.583 124.652 177.535 125.056C177.487 125.46 177.612 125.841 177.91 126.198ZM186.096 129.228C185.895 128.988 185.797 128.738 185.802 128.481C185.814 128.217 185.93 127.993 186.151 127.809C186.372 127.625 186.61 127.553 186.864 127.594C187.125 127.629 187.356 127.767 187.557 128.007C187.763 128.254 187.858 128.506 187.841 128.763C187.835 129.021 187.722 129.242 187.502 129.426C187.281 129.611 187.04 129.685 186.779 129.65C186.529 129.615 186.302 129.475 186.096 129.228ZM182.004 132.645C181.803 132.404 181.705 132.155 181.711 131.898C181.722 131.634 181.838 131.41 182.059 131.226C182.28 131.042 182.518 130.97 182.772 131.011C183.034 131.046 183.264 131.184 183.465 131.424C183.671 131.671 183.766 131.923 183.749 132.18C183.744 132.438 183.631 132.659 183.41 132.843C183.189 133.028 182.948 133.102 182.687 133.067C182.438 133.032 182.21 132.892 182.004 132.645ZM191.793 144.367C191.435 143.938 191.204 143.497 191.101 143.043C191.003 142.596 191.033 142.157 191.192 141.727C191.363 141.298 191.659 140.907 192.081 140.554L195.296 137.869C195.725 137.511 196.162 137.289 196.609 137.203C197.06 137.124 197.498 137.172 197.92 137.348C198.348 137.531 198.742 137.837 199.1 138.265C199.457 138.694 199.682 139.135 199.774 139.587C199.872 140.035 199.838 140.47 199.674 140.894C199.51 141.318 199.217 141.706 198.795 142.059L198.062 141.182C198.465 140.846 198.684 140.481 198.719 140.087C198.767 139.695 198.63 139.307 198.31 138.924C197.99 138.541 197.631 138.329 197.232 138.287C196.839 138.251 196.441 138.402 196.038 138.738L192.814 141.431C192.411 141.767 192.189 142.135 192.147 142.533C192.117 142.933 192.262 143.325 192.582 143.708C192.902 144.091 193.256 144.297 193.644 144.326C194.044 144.356 194.445 144.203 194.847 143.867L195.58 144.743C195.164 145.09 194.73 145.31 194.277 145.401C193.831 145.487 193.393 145.445 192.964 145.274C192.541 145.098 192.151 144.796 191.793 144.367ZM196.638 150.17C196.286 149.747 196.061 149.307 195.964 148.847C195.873 148.395 195.906 147.953 196.065 147.523C196.236 147.094 196.526 146.708 196.935 146.367L198.396 145.146C198.812 144.799 199.243 144.582 199.689 144.496C200.141 144.417 200.582 144.462 201.011 144.633C201.445 144.81 201.839 145.11 202.192 145.532C202.544 145.955 202.766 146.392 202.858 146.845C202.954 147.304 202.921 147.746 202.757 148.169C202.598 148.6 202.31 148.988 201.895 149.335L200.95 150.125L198.167 146.793L197.651 147.224C197.229 147.576 196.994 147.955 196.945 148.359C196.903 148.758 197.048 149.155 197.379 149.551C197.661 149.889 197.947 150.113 198.238 150.223C198.535 150.328 198.822 150.303 199.1 150.148L199.833 151.024C199.336 151.34 198.794 151.418 198.208 151.257C197.633 151.097 197.11 150.735 196.638 150.17ZM200.818 148.779L201.179 148.478C201.601 148.126 201.836 147.747 201.885 147.343C201.938 146.945 201.797 146.545 201.461 146.143C201.13 145.746 200.761 145.536 200.355 145.511C199.949 145.487 199.535 145.651 199.112 146.004L198.83 146.239L200.953 148.782L200.818 148.779ZM198.168 155.368L205.28 149.429L206.012 150.306L204.989 151.16L205.136 151.335L204.785 151.331C205.194 150.989 205.627 150.854 206.083 150.925C206.551 150.997 206.969 151.254 207.338 151.695C207.788 152.235 207.968 152.812 207.876 153.429C207.797 154.047 207.448 154.613 206.831 155.128L205.263 156.438C204.854 156.78 204.437 157.001 204.014 157.101C203.596 157.207 203.194 157.195 202.81 157.065C202.43 156.94 202.089 156.696 201.785 156.333C201.422 155.898 201.246 155.443 201.259 154.97C201.271 154.496 201.479 154.091 201.882 153.755L201.823 154.101L201.661 153.907L200.459 154.943L198.9 156.245L198.168 155.368ZM202.301 155.406C202.61 155.776 202.962 155.973 203.356 155.996C203.756 156.026 204.164 155.868 204.579 155.521L206.041 154.3C206.456 153.953 206.685 153.58 206.727 153.181C206.774 152.789 206.643 152.408 206.334 152.038C206.036 151.681 205.684 151.49 205.277 151.465C204.871 151.441 204.466 151.597 204.064 151.933L202.602 153.153C202.2 153.489 201.974 153.86 201.926 154.264C201.878 154.668 202.003 155.049 202.301 155.406ZM205.109 160.115L210.467 155.641L213.681 159.489L212.882 160.156L210.401 157.185L205.841 160.992L205.109 160.115ZM211.273 167.694C210.92 167.272 210.696 166.832 210.599 166.372C210.507 165.92 210.541 165.478 210.7 165.048C210.871 164.619 211.16 164.233 211.57 163.891L213.031 162.671C213.447 162.324 213.878 162.107 214.324 162.021C214.776 161.942 215.216 161.987 215.645 162.158C216.08 162.335 216.474 162.635 216.826 163.057C217.179 163.479 217.401 163.917 217.492 164.37C217.589 164.829 217.555 165.27 217.391 165.694C217.232 166.124 216.945 166.513 216.529 166.86L215.584 167.649L212.802 164.318L212.286 164.749C211.863 165.101 211.628 165.48 211.58 165.884C211.538 166.283 211.683 166.68 212.013 167.076C212.295 167.414 212.582 167.638 212.872 167.748C213.169 167.853 213.457 167.828 213.735 167.672L214.467 168.549C213.97 168.865 213.429 168.943 212.842 168.782C212.268 168.622 211.745 168.26 211.273 167.694ZM215.453 166.304L215.813 166.003C216.236 165.65 216.471 165.272 216.519 164.868C216.573 164.47 216.432 164.07 216.095 163.667C215.765 163.271 215.396 163.061 214.99 163.036C214.583 163.012 214.169 163.176 213.747 163.528L213.464 163.764L215.588 166.307L215.453 166.304ZM214.573 171.448L219.931 166.973L220.631 167.811L217.708 170.252C217.52 170.409 217.316 170.568 217.097 170.729C216.884 170.896 216.675 171.048 216.47 171.186C216.278 171.325 216.108 171.439 215.962 171.528L222.347 169.867L223.283 170.987L217.924 175.462L217.225 174.624L220.148 172.183C220.336 172.026 220.537 171.864 220.75 171.697C220.969 171.536 221.18 171.387 221.385 171.249C221.596 171.106 221.769 170.989 221.903 170.899L215.508 172.568L214.573 171.448ZM222.516 168.287C222.126 167.819 221.941 167.334 221.962 166.831C221.983 166.329 222.205 165.901 222.627 165.548L223.205 166.24C222.951 166.452 222.812 166.701 222.786 166.987C222.761 167.273 222.856 167.546 223.073 167.805C223.296 168.072 223.55 168.218 223.836 168.243C224.127 168.276 224.4 168.186 224.653 167.974L225.231 168.666C224.808 169.019 224.348 169.16 223.85 169.092C223.351 169.023 222.907 168.755 222.516 168.287ZM224.459 183.287L231.571 177.348L235.029 181.488L234.23 182.156L231.504 178.892L225.191 184.164L224.459 183.287ZM227.437 190.418L234.549 184.479L235.281 185.355L234.258 186.21L234.405 186.385L234.054 186.381C234.463 186.039 234.896 185.903 235.352 185.975C235.82 186.047 236.238 186.304 236.607 186.745C237.057 187.284 237.237 187.862 237.145 188.479C237.066 189.096 236.718 189.663 236.101 190.178L234.532 191.488C234.123 191.829 233.707 192.05 233.283 192.15C232.865 192.257 232.463 192.245 232.079 192.114C231.699 191.99 231.358 191.746 231.054 191.382C230.691 190.947 230.515 190.493 230.528 190.02C230.54 189.546 230.748 189.141 231.151 188.805L231.092 189.151L230.93 188.956L229.728 189.993L228.169 191.294L227.437 190.418ZM231.57 190.456C231.879 190.826 232.231 191.023 232.625 191.046C233.025 191.076 233.433 190.917 233.849 190.57L235.31 189.35C235.726 189.003 235.954 188.63 235.996 188.231C236.043 187.839 235.912 187.458 235.603 187.087C235.305 186.73 234.953 186.539 234.546 186.515C234.14 186.49 233.736 186.646 233.333 186.983L231.872 188.203C231.469 188.539 231.243 188.909 231.195 189.314C231.147 189.718 231.272 190.098 231.57 190.456ZM234.085 194.814L239.444 190.34L240.143 191.178L237.221 193.618C237.032 193.776 236.829 193.934 236.61 194.095C236.397 194.262 236.188 194.415 235.983 194.552C235.791 194.691 235.621 194.805 235.475 194.894L241.86 193.233L242.796 194.354L237.437 198.828L236.738 197.99L239.66 195.55C239.849 195.392 240.049 195.23 240.263 195.063C240.481 194.903 240.693 194.753 240.898 194.616C241.109 194.472 241.281 194.356 241.416 194.266L235.021 195.935L234.085 194.814ZM237.079 201.171L239.193 199.406L239.559 199.844C239.762 199.863 240.074 199.795 240.497 199.64C240.924 199.492 241.391 199.213 241.897 198.802L244.664 196.591L247.584 200.088L242.976 203.936L243.546 204.618L241.431 206.384L240.781 205.604L242.145 204.465L239.094 200.812L237.73 201.951L237.079 201.171ZM240.332 200.77L242.244 203.059L246.073 199.862L244.576 198.069L242.585 199.666C242.066 200.088 241.605 200.38 241.2 200.541C240.795 200.703 240.505 200.779 240.332 200.77ZM243.842 206.498L249.2 202.023L249.932 202.9L247.701 204.763L249.589 207.023L251.82 205.16L252.552 206.037L247.194 210.511L246.461 209.635L248.79 207.69L246.902 205.43L244.574 207.374L243.842 206.498ZM250.298 214.427C249.946 214.005 249.721 213.565 249.624 213.105C249.533 212.653 249.566 212.211 249.725 211.781C249.896 211.352 250.186 210.966 250.595 210.624L252.057 209.404C252.472 209.057 252.903 208.84 253.349 208.754C253.801 208.675 254.242 208.72 254.671 208.891C255.105 209.068 255.499 209.368 255.852 209.79C256.204 210.212 256.426 210.65 256.518 211.103C256.615 211.562 256.581 212.003 256.417 212.427C256.258 212.857 255.971 213.246 255.555 213.593L254.61 214.382L251.827 211.051L251.311 211.482C250.889 211.834 250.654 212.213 250.605 212.617C250.564 213.015 250.708 213.413 251.039 213.809C251.321 214.147 251.607 214.371 251.898 214.481C252.195 214.586 252.482 214.561 252.76 214.405L253.493 215.282C252.996 215.598 252.454 215.676 251.868 215.515C251.293 215.355 250.77 214.993 250.298 214.427ZM254.478 213.037L254.839 212.736C255.261 212.383 255.496 212.005 255.545 211.601C255.598 211.203 255.457 210.803 255.121 210.4C254.79 210.004 254.421 209.794 254.015 209.769C253.609 209.745 253.195 209.909 252.772 210.261L252.49 210.497L254.613 213.04L254.478 213.037ZM253.598 218.181L258.956 213.706L260.893 216.025C261.359 216.583 261.593 217.121 261.595 217.638C261.603 218.149 261.383 218.592 260.935 218.966C260.565 219.275 260.16 219.398 259.721 219.335C259.289 219.266 258.899 219.024 258.552 218.608L258.63 218.543C259.01 218.998 259.2 219.456 259.2 219.919C259.206 220.388 259.017 220.782 258.634 221.102C258.153 221.504 257.641 221.656 257.097 221.559C256.56 221.457 256.047 221.113 255.559 220.529L253.598 218.181ZM255.084 218.395L256.328 219.886C256.589 220.198 256.858 220.381 257.135 220.436C257.418 220.498 257.683 220.425 257.93 220.219C258.183 220.008 258.304 219.757 258.294 219.468C258.29 219.185 258.157 218.888 257.897 218.576L256.652 217.086L255.084 218.395ZM257.412 216.451L258.632 217.912C258.86 218.185 259.104 218.345 259.364 218.393C259.63 218.447 259.879 218.376 260.113 218.181C260.347 217.985 260.464 217.756 260.464 217.491C260.47 217.221 260.356 216.947 260.123 216.668L258.903 215.206L257.412 216.451Z" fill="#1C2552"/>
<path d="M127.353 108.132L131.941 104.3L130.314 102.351L131.084 101.709L135.07 106.482L134.301 107.125L132.673 105.177L128.085 109.008L127.353 108.132ZM132.499 114.493C132.147 114.071 131.922 113.63 131.825 113.171C131.734 112.718 131.767 112.277 131.926 111.846C132.097 111.417 132.387 111.032 132.796 110.69L134.257 109.47C134.673 109.122 135.104 108.906 135.55 108.82C136.002 108.74 136.443 108.786 136.872 108.957C137.306 109.134 137.7 109.434 138.053 109.856C138.405 110.278 138.627 110.715 138.719 111.168C138.815 111.627 138.782 112.069 138.618 112.493C138.459 112.923 138.171 113.312 137.756 113.659L136.811 114.448L134.028 111.116L133.512 111.547C133.09 111.9 132.855 112.278 132.806 112.682C132.764 113.081 132.909 113.479 133.24 113.875C133.522 114.212 133.808 114.436 134.099 114.547C134.396 114.651 134.683 114.626 134.961 114.471L135.694 115.348C135.197 115.664 134.655 115.741 134.069 115.58C133.494 115.42 132.971 115.058 132.499 114.493ZM136.679 113.102L137.04 112.801C137.462 112.449 137.697 112.071 137.746 111.666C137.799 111.269 137.658 110.869 137.322 110.466C136.991 110.07 136.622 109.859 136.216 109.835C135.81 109.81 135.396 109.974 134.973 110.327L134.691 110.563L136.814 113.106L136.679 113.102ZM135.441 117.818L139.785 117.415L140.897 113.46L141.759 114.493L140.99 116.938C140.957 117.043 140.914 117.15 140.862 117.26C140.815 117.376 140.777 117.468 140.747 117.538C140.815 117.514 140.908 117.486 141.025 117.454C141.147 117.429 141.263 117.41 141.372 117.396L143.923 117.084L144.778 118.107L140.678 118.505L139.509 122.689L138.647 121.656L139.44 119.042C139.474 118.937 139.517 118.824 139.57 118.702C139.635 118.582 139.683 118.481 139.714 118.4C139.634 118.423 139.524 118.449 139.383 118.478C139.254 118.509 139.132 118.528 139.017 118.536L136.295 118.841L135.441 117.818ZM140.677 124.088L146.036 119.613L146.768 120.49L144.537 122.353L146.424 124.613L148.655 122.75L149.387 123.627L144.029 128.102L143.297 127.225L145.625 125.281L143.738 123.02L141.409 124.965L140.677 124.088ZM147.153 132.002C146.795 131.573 146.568 131.135 146.47 130.688C146.372 130.24 146.402 129.801 146.561 129.371C146.732 128.942 147.028 128.551 147.45 128.199L148.873 127.011C149.301 126.653 149.739 126.431 150.185 126.345C150.637 126.265 151.074 126.313 151.497 126.49C151.919 126.666 152.31 126.968 152.668 127.397C153.026 127.825 153.254 128.264 153.352 128.711C153.45 129.158 153.416 129.594 153.252 130.018C153.093 130.448 152.803 130.839 152.381 131.192L150.949 132.388C150.526 132.74 150.086 132.959 149.628 133.044C149.182 133.13 148.747 133.085 148.324 132.909C147.902 132.733 147.511 132.43 147.153 132.002ZM147.933 131.351C148.253 131.734 148.609 131.943 149.003 131.979C149.396 132.014 149.801 131.858 150.216 131.511L151.639 130.323C152.054 129.976 152.28 129.606 152.315 129.212C152.351 128.819 152.208 128.431 151.888 128.048C151.574 127.671 151.217 127.462 150.818 127.42C150.425 127.385 150.02 127.54 149.605 127.888L148.182 129.075C147.767 129.422 147.541 129.793 147.506 130.186C147.476 130.586 147.618 130.974 147.933 131.351ZM149.804 135.156L150.622 134.473L150.769 134.648C151.018 134.947 151.309 135.057 151.64 134.979C151.977 134.907 152.45 134.622 153.06 134.124L156.109 131.677L159.144 135.31L153.786 139.785L153.053 138.908L157.613 135.101L156.034 133.211L153.753 135.033C153.177 135.492 152.665 135.81 152.217 135.986C151.774 136.168 151.371 136.207 151.008 136.102C150.65 136.004 150.311 135.763 149.991 135.38L149.804 135.156ZM156.91 143.685C156.552 143.256 156.324 142.818 156.226 142.371C156.128 141.923 156.158 141.485 156.317 141.054C156.488 140.625 156.784 140.234 157.207 139.882L158.629 138.694C159.058 138.336 159.495 138.114 159.941 138.028C160.393 137.948 160.83 137.997 161.253 138.173C161.676 138.349 162.066 138.651 162.424 139.08C162.782 139.509 163.01 139.947 163.108 140.394C163.206 140.841 163.173 141.277 163.008 141.701C162.85 142.131 162.559 142.522 162.137 142.875L160.705 144.071C160.283 144.424 159.843 144.642 159.384 144.727C158.938 144.813 158.504 144.768 158.081 144.592C157.658 144.416 157.268 144.113 156.91 143.685ZM157.689 143.034C158.009 143.417 158.366 143.626 158.759 143.662C159.153 143.697 159.557 143.541 159.973 143.194L161.395 142.006C161.811 141.659 162.036 141.289 162.072 140.896C162.107 140.502 161.965 140.114 161.645 139.731C161.33 139.354 160.973 139.145 160.575 139.103C160.181 139.068 159.777 139.224 159.361 139.571L157.939 140.759C157.523 141.106 157.298 141.476 157.262 141.869C157.232 142.269 157.375 142.657 157.689 143.034ZM160.483 147.805L165.841 143.331L169.055 147.179L168.256 147.846L165.775 144.875L161.215 148.682L160.483 147.805ZM170.739 151.967C170.538 151.727 170.44 151.478 170.445 151.22C170.457 150.957 170.573 150.733 170.794 150.549C171.015 150.364 171.253 150.292 171.507 150.333C171.768 150.369 171.999 150.507 172.2 150.747C172.406 150.994 172.5 151.246 172.483 151.502C172.478 151.76 172.365 151.981 172.144 152.166C171.924 152.35 171.683 152.425 171.422 152.389C171.172 152.355 170.945 152.214 170.739 151.967ZM166.647 155.384C166.446 155.144 166.348 154.895 166.353 154.637C166.365 154.374 166.481 154.15 166.702 153.966C166.923 153.781 167.161 153.709 167.415 153.75C167.676 153.786 167.907 153.924 168.108 154.164C168.314 154.411 168.409 154.663 168.392 154.919C168.386 155.177 168.273 155.398 168.053 155.583C167.832 155.767 167.591 155.842 167.33 155.806C167.08 155.772 166.853 155.631 166.647 155.384ZM172.899 165.446L175.013 163.681L175.379 164.119C175.569 164.082 175.807 164.01 176.093 163.904C176.379 163.797 176.686 163.657 177.014 163.482C177.342 163.307 177.661 163.096 177.972 162.847L182.238 159.401L185.28 163.044L178.918 168.357L179.488 169.039L177.374 170.804L176.723 170.025L178.087 168.886L174.914 165.086L173.55 166.225L172.899 165.446ZM176.144 165.035L178.186 167.48L183.769 162.818L182.158 160.889L178.688 163.704C178.182 164.116 177.695 164.429 177.225 164.645C176.755 164.861 176.394 164.991 176.144 165.035ZM179.703 170.821L185.061 166.346L185.761 167.184L182.838 169.625C182.65 169.782 182.446 169.941 182.227 170.102C182.014 170.269 181.805 170.421 181.601 170.559C181.408 170.698 181.239 170.812 181.092 170.901L187.477 169.24L188.413 170.36L183.055 174.835L182.355 173.997L185.278 171.556C185.466 171.399 185.667 171.237 185.88 171.07C186.099 170.909 186.31 170.76 186.515 170.622C186.726 170.479 186.899 170.362 187.033 170.272L180.638 171.941L179.703 170.821ZM185.769 178.283C185.297 177.718 185.068 177.154 185.083 176.591C185.104 176.022 185.361 175.531 185.855 175.119C186.355 174.701 186.884 174.536 187.441 174.622C187.998 174.708 188.507 175.027 188.968 175.579L190.351 177.235L190.887 176.788C191.218 176.511 191.387 176.199 191.394 175.851C191.413 175.504 191.271 175.149 190.967 174.785C190.702 174.467 190.411 174.258 190.096 174.157C189.787 174.052 189.505 174.077 189.251 174.235L188.518 173.358C189.028 173.031 189.577 172.942 190.164 173.091C190.752 173.24 191.281 173.597 191.753 174.162C192.269 174.779 192.516 175.399 192.496 176.022C192.476 176.645 192.194 177.185 191.648 177.64L187.965 180.715L187.249 179.858L188.272 179.004L188.15 178.858L188.419 178.882C188.029 179.207 187.593 179.312 187.111 179.197C186.634 179.088 186.187 178.783 185.769 178.283ZM186.64 177.92C186.987 178.336 187.375 178.59 187.806 178.683C188.236 178.775 188.613 178.686 188.938 178.415L189.698 177.78L188.331 176.144C188.087 175.851 187.813 175.688 187.51 175.655C187.207 175.622 186.915 175.722 186.636 175.955C186.337 176.205 186.184 176.503 186.177 176.851C186.182 177.2 186.336 177.556 186.64 177.92ZM189.459 182.504L194.817 178.03L195.55 178.906L193.319 180.769L195.206 183.03L197.437 181.167L198.169 182.043L192.811 186.518L192.079 185.641L194.407 183.697L192.52 181.437L190.191 183.381L189.459 182.504ZM195.525 189.966C195.053 189.401 194.825 188.837 194.839 188.274C194.861 187.705 195.118 187.214 195.611 186.802C196.112 186.385 196.64 186.219 197.197 186.305C197.754 186.391 198.263 186.71 198.724 187.262L200.107 188.918L200.643 188.471C200.974 188.194 201.143 187.882 201.151 187.534C201.17 187.188 201.027 186.832 200.724 186.469C200.458 186.15 200.167 185.941 199.852 185.841C199.543 185.735 199.262 185.761 199.007 185.918L198.275 185.041C198.785 184.714 199.333 184.626 199.921 184.775C200.508 184.923 201.038 185.28 201.51 185.845C202.025 186.462 202.273 187.082 202.253 187.705C202.233 188.328 201.95 188.868 201.404 189.323L197.722 192.399L197.006 191.541L198.029 190.687L197.907 190.541L198.175 190.565C197.785 190.89 197.349 190.995 196.867 190.88C196.39 190.771 195.943 190.467 195.525 189.966ZM196.396 189.603C196.743 190.019 197.132 190.273 197.562 190.366C197.992 190.458 198.37 190.369 198.694 190.098L199.454 189.463L198.088 187.827C197.844 187.534 197.57 187.372 197.266 187.338C196.963 187.305 196.672 187.405 196.392 187.638C196.094 187.888 195.941 188.186 195.933 188.534C195.938 188.883 196.092 189.239 196.396 189.603Z" fill="#1C2552"/>
<rect x="111.331" y="117.294" width="226.326" height="4.87772" transform="rotate(50.1356 111.331 117.294)" fill="#1C2552"/>
<rect x="94.8572" y="131.051" width="226.326" height="4.87772" transform="rotate(50.1356 94.8572 131.051)" fill="#1C2552"/>
<rect x="78.3839" y="144.807" width="226.326" height="4.87772" transform="rotate(50.1356 78.3839 144.807)" fill="#1C2552"/>
<rect x="63.4081" y="157.312" width="126.821" height="4.87772" transform="rotate(50.1356 63.4081 157.312)" fill="#1C2552"/>
<rect x="56.6689" y="162.94" width="126.821" height="4.87772" transform="rotate(50.1356 56.6689 162.94)" fill="#1C2552"/>
<rect x="49.9297" y="168.57" width="126.821" height="4.87772" transform="rotate(50.1356 49.9297 168.57)" fill="#1C2552"/>
<rect x="43.1905" y="174.196" width="126.821" height="4.87772" transform="rotate(50.1356 43.1905 174.196)" fill="#1C2552"/>
<rect x="103.094" y="124.172" width="79.0191" height="4.87772" transform="rotate(50.1356 103.094 124.172)" fill="#1C2552"/>
<rect x="86.6205" y="137.929" width="79.0191" height="4.87772" transform="rotate(50.1356 86.6205 137.929)" fill="#1C2552"/>
<rect x="71.6448" y="150.434" width="43.8995" height="4.87772" transform="rotate(50.1356 71.6448 150.434)" fill="#1C2552"/>
<rect x="102.91" y="187.874" width="152.185" height="4.87772" transform="rotate(50.1356 102.91 187.874)" fill="#1C2552"/>
<rect x="156.244" y="187.82" width="27.3152" height="4.87772" transform="rotate(50.1356 156.244 187.82)" fill="#1C2552"/>
<rect x="55.8357" y="203.035" width="27.3152" height="4.87772" transform="rotate(50.1356 55.8357 203.035)" fill="#1C2552"/>
<rect x="75.22" y="226.25" width="27.3152" height="4.87772" transform="rotate(50.1356 75.22 226.25)" fill="#1C2552"/>
<rect x="36.4516" y="179.824" width="27.3152" height="4.87772" transform="rotate(50.1356 36.4516 179.824)" fill="#1C2552"/>
<rect x="143.795" y="349.461" width="27.3152" height="4.87772" transform="rotate(50.1356 143.795 349.461)" fill="#1C2552"/>
<rect x="176.254" y="211.782" width="27.3152" height="4.87772" transform="rotate(50.1356 176.254 211.782)" fill="#1C2552"/>
<rect x="201.707" y="306.184" width="23.4131" height="4.87772" transform="rotate(50.1356 201.707 306.184)" fill="#1C2552"/>
<rect x="196.263" y="235.743" width="80.9702" height="4.87772" transform="rotate(50.1356 196.263 235.743)" fill="#1C2552"/>
</svg>
