<svg width="255" height="276" viewBox="0 0 255 276" fill="none" xmlns="http://www.w3.org/2000/svg">
<rect x="84" y="12" width="85" height="85" fill="#FFBB33"/>
<rect x="127" y="97" width="85" height="85" fill="#10185A"/>
<rect x="170" y="182" width="85" height="85" fill="#A00750"/>
<rect y="182" width="85" height="85" fill="#0CB2F4"/>
<rect x="42" y="97" width="85" height="85" fill="#A00750"/>
<rect x="85" y="182" width="85" height="85" fill="#F90047"/>
<path d="M108.28 82V23.6H145.24V34.8H119.88V46.48H127.72C131.773 46.48 135.293 47.2267 138.28 48.72C141.267 50.16 143.587 52.2133 145.24 54.88C146.947 57.4933 147.8 60.5867 147.8 64.16C147.8 67.7333 146.947 70.8533 145.24 73.52C143.587 76.1867 141.267 78.2667 138.28 79.76C135.293 81.2533 131.8 82 127.8 82H108.28ZM119.88 72H127.8C130.253 72 132.2 71.3067 133.64 69.92C135.08 68.5333 135.8 66.6667 135.8 64.32C135.8 61.92 135.08 60.0267 133.64 58.64C132.2 57.2 130.253 56.48 127.8 56.48H119.88V72Z" fill="#10185A"/>
<path d="M61.76 175.2V153.76H64.24C64.8267 152.8 65.44 151.493 66.08 149.84C66.7733 148.133 67.36 146.187 67.84 144C68.32 141.76 68.56 139.36 68.56 136.8L69.04 105.6H101.44V153.76H106.24V175.2H95.04V164H72.96V175.2H61.76ZM76 153.76H90.24V115.84H80.08L79.76 136.72C79.7067 140.453 79.2533 143.867 78.4 146.96C77.5467 150 76.7467 152.267 76 153.76Z" fill="#10185A"/>
<path d="M23.6 252V240.72L42.16 222.8C44.3467 220.667 45.9733 218.693 47.04 216.88C48.16 215.067 48.72 213.093 48.72 210.96C48.72 208.613 48.08 206.8 46.8 205.52C45.5733 204.24 43.8667 203.6 41.68 203.6C39.28 203.6 37.3867 204.32 36 205.76C34.6667 207.147 34 209.093 34 211.6H22C22 207.76 22.8 204.453 24.4 201.68C26.0533 198.853 28.3733 196.667 31.36 195.12C34.3467 193.573 37.8667 192.8 41.92 192.8C45.7067 192.8 48.9867 193.52 51.76 194.96C54.5867 196.347 56.7733 198.293 58.32 200.8C59.92 203.307 60.72 206.267 60.72 209.68C60.72 213.467 59.7867 217.093 57.92 220.56C56.0533 224.027 53.0667 227.653 48.96 231.44L38.4 241.2H61.36V252H23.6Z" fill="#10185A"/>
<path d="M127.92 252.8C122.107 252.8 117.493 251.36 114.08 248.48C110.667 245.6 108.907 241.707 108.8 236.8H120.8C120.907 238.56 121.573 239.947 122.8 240.96C124.027 241.92 125.733 242.4 127.92 242.4C130.267 242.4 132.053 241.813 133.28 240.64C134.56 239.413 135.2 237.733 135.2 235.6V229.92C135.2 227.733 134.587 226.08 133.36 224.96C132.133 223.787 130.32 223.2 127.92 223.2C126.48 223.2 125.227 223.413 124.16 223.84C123.147 224.213 122.347 224.8 121.76 225.6H110.16L110.56 193.6H145.04V204.4H121.84L121.68 219.6H124.16L121.6 221.6C121.6 219.147 122.533 217.227 124.4 215.84C126.32 214.4 128.907 213.68 132.16 213.68C136.907 213.68 140.587 215.12 143.2 218C145.867 220.827 147.2 224.8 147.2 229.92V235.6C147.2 240.933 145.493 245.147 142.08 248.24C138.667 251.28 133.947 252.8 127.92 252.8Z" fill="#FBD218"/>
<path d="M199.72 252L220.92 204.8H204.6V213.2H192.6V193.6H233V204.8L212.52 252H199.72Z" fill="#F90047"/>
<path d="M166 170.8C161.947 170.8 158.4 170.133 155.36 168.8C152.32 167.467 149.92 165.573 148.16 163.12C146.4 160.667 145.413 157.76 145.2 154.4H157.2C157.413 156.267 158.293 157.733 159.84 158.8C161.44 159.867 163.493 160.4 166 160.4C168.613 160.4 170.72 159.707 172.32 158.32C173.973 156.88 174.8 155.093 174.8 152.96C174.8 150.72 174.027 148.933 172.48 147.6C170.933 146.267 168.773 145.6 166 145.6H157.6V134.8H166C168.667 134.8 170.747 134.107 172.24 132.72C173.733 131.28 174.48 129.573 174.48 127.6C174.48 125.573 173.707 124 172.16 122.88C170.667 121.76 168.613 121.2 166 121.2C163.813 121.2 161.973 121.733 160.48 122.8C158.987 123.867 158.053 125.333 157.68 127.2H145.68C146 123.84 147.067 120.933 148.88 118.48C150.693 116.027 153.093 114.133 156.08 112.8C159.12 111.467 162.587 110.8 166.48 110.8C172.347 110.8 177.013 112.053 180.48 114.56C184 117.067 185.76 120.507 185.76 124.88C185.76 127.707 185.12 130.213 183.84 132.4C182.613 134.533 180.827 136.213 178.48 137.44C176.133 138.613 173.307 139.2 170 139.2V138C173.36 137.947 176.293 138.533 178.8 139.76C181.36 140.987 183.333 142.747 184.72 145.04C186.107 147.28 186.8 149.893 186.8 152.88C186.8 156.453 185.947 159.6 184.24 162.32C182.533 164.987 180.107 167.067 176.96 168.56C173.867 170.053 170.213 170.8 166 170.8Z" fill="#0CB2F4"/>
</svg>
