<svg width="232" height="410" viewBox="0 0 232 410" fill="none" xmlns="http://www.w3.org/2000/svg">
<ellipse cx="116.187" cy="148.027" rx="20.1869" ry="43.0265" fill="black"/>
<ellipse cx="116.187" cy="310.027" rx="20.1869" ry="43.0265" fill="black"/>
<ellipse cx="116.187" cy="248.027" rx="20.1869" ry="43.0265" fill="black"/>
<ellipse cx="116" cy="205.5" rx="7" ry="37.5" fill="black"/>
<ellipse cx="126" cy="367.5" rx="7" ry="37.5" fill="black"/>
<ellipse cx="81.4661" cy="378.466" rx="7" ry="37.5" transform="rotate(-45 81.4661 378.466)" fill="black"/>
<ellipse cx="151.466" cy="378.466" rx="7" ry="37.5" transform="rotate(45 151.466 378.466)" fill="black"/>
<ellipse cx="31.4663" cy="227.466" rx="7" ry="37.5" transform="rotate(45 31.4663 227.466)" fill="black"/>
<ellipse cx="200.466" cy="227.466" rx="7" ry="37.5" transform="rotate(-45 200.466 227.466)" fill="black"/>
<ellipse cx="107" cy="367.5" rx="7" ry="37.5" fill="black"/>
<ellipse cx="148.978" cy="217.35" rx="7" ry="30.5746" transform="rotate(60 148.978 217.35)" fill="black"/>
<ellipse cx="80.9782" cy="217.35" rx="7" ry="30.5746" transform="rotate(-60 80.9782 217.35)" fill="black"/>
<rect x="47" y="76.0584" width="147.675" height="22" transform="rotate(-31 47 76.0584)" fill="#FFBB33"/>
<rect x="58.3301" y="0.00012207" width="147.675" height="22" transform="rotate(31 58.3301 0.00012207)" fill="#FFBB33"/>
<path d="M163.947 81.0069C163.947 81.0752 163.947 81.1435 164.249 91.8107C164.55 102.478 165.153 123.742 166.227 139.229C167.3 154.716 168.826 163.782 170.327 171.115C172.933 183.845 174.814 189.836 174.947 192.124C174.994 193.838 175.002 196.677 174.95 198.351C174.898 200.025 174.787 200.449 174.555 201.225" stroke="#FFBB33" stroke-width="2" stroke-linecap="round"/>
<path d="M170.699 79.3904C170.699 79.5146 170.699 82.0418 171.066 87.5519C171.27 90.614 172.168 94.1547 177.778 111.618C183.389 129.081 193.853 160.344 201.851 181.505C209.849 202.666 215.064 212.778 219.031 222.085C222.998 231.392 225.557 239.588 226.943 244.117C228.463 249.262 228.759 250.35 229.114 251.512C229.313 252.22 229.549 253.167 230.143 254.533" stroke="#FFBB33" stroke-width="2" stroke-linecap="round"/>
<path d="M67.411 78.1368C67.411 78.2028 67.411 78.2689 67.3935 92.9881C67.376 107.707 67.3411 137.078 67.2285 152.907C67.1159 168.737 66.9268 170.135 65.9063 173.957C63.2164 184.029 60.9036 190.794 59.9964 192.183C56.8753 196.741 56.2167 199.396 56.2555 203.209C56.4228 203.493 56.7576 202.643 57.1024 201.767" stroke="#FFBB33" stroke-width="2" stroke-linecap="round"/>
<path d="M60.0972 82.5359C60.0972 82.5676 59.9753 83.0896 56.1446 92.6698C52.5049 101.772 45.1439 119.372 39.4424 136.345C33.7409 153.317 29.8508 169.101 26.4411 180.744C23.0314 192.387 20.2199 199.412 18.3198 206.251C16.4196 213.09 15.516 219.53 14.4056 225.362C13.2952 231.194 12.0055 236.223 10.5176 242.228" stroke="#FFBB33" stroke-width="2" stroke-linecap="round"/>
<path d="M168.749 19.4972C168.749 19.5526 168.749 19.6081 168.681 62.2806C168.614 104.953 168.478 190.241 167.326 239.748C166.173 289.255 164.008 300.396 160.284 313.791C156.56 327.186 151.344 342.496 148.096 352.138C143.671 365.273 140.988 372.627 138.111 380.079C136.815 383.813 135.854 387.451 135.259 390.097C134.665 392.743 134.466 394.286 133.977 396.991" stroke="#FFBB33" stroke-width="2" stroke-linecap="round"/>
<path d="M79.2147 29.3453C79.2147 29.444 79.2147 29.5426 79.1899 74.7613C79.165 119.98 79.1153 210.316 79.5275 259.482C79.9397 308.648 80.8154 313.906 81.5824 317.559C83.3176 325.823 85.4024 328.294 87.8674 334.167C91.2831 342.304 94.4234 350.364 95.6996 356.165C97.6974 365.247 94.7564 368.041 93.4712 371.17C92.162 374.357 93.2912 377.315 94.8708 380.631C98.5332 386.415 101.361 390.653 101.717 393.727C101.798 394.474 101.961 395.086 102.629 396.22" stroke="#FFBB33" stroke-width="2" stroke-linecap="round"/>
</svg>
