<svg width="121" height="121" viewBox="0 0 121 121" fill="none" xmlns="http://www.w3.org/2000/svg">
<circle cx="60.1178" cy="60.6157" r="30.2886" transform="rotate(4.24234 60.1178 60.6157)" fill="#10185A"/>
<path d="M46.8843 34.6795C46.6093 38.3873 52.6345 42.7816 61.5647 43.4441C70.4948 44.1065 76.8847 40.633 77.3775 36.9415C77.4261 36.2872 77.6762 35.8671 78.1442 35.4632C73.7644 32.5067 68.4486 30.358 62.5678 29.9217C56.6869 29.4855 51.1123 30.8264 46.328 33.3224C46.7474 33.5729 46.9167 34.2433 46.8843 34.6795Z" fill="#0CB2F4"/>
<path d="M42.4904 64.3981C43.0728 56.5464 45.567 49.4944 49.424 44.7366C45.4475 42.2486 42.8263 39.2032 42.4317 35.6651C35.493 40.633 30.5058 48.8158 29.8102 58.1942C28.7747 72.1527 37.2831 84.4069 49.6409 89.0517C44.5355 84.0676 41.7138 74.867 42.4904 64.3981Z" fill="#0CB2F4"/>
<path d="M81.6538 38.3554C80.9593 41.8127 77.9013 44.6561 73.3995 46.2958C76.4962 51.7888 77.9226 59.1316 77.3563 66.7652C76.5797 77.2341 72.4315 85.9177 66.6303 90.3121C79.5383 87.5414 89.7615 76.6767 90.7969 62.7182C91.4926 53.3398 87.7674 44.5107 81.6538 38.3554Z" fill="#0CB2F4"/>
<path d="M68.9272 47.5012C66.4827 47.9778 63.8529 48.002 61.2392 47.8081C58.4076 47.5981 56.0441 46.9841 53.6806 46.3702C49.8721 50.4737 47.3941 57.3076 46.8602 64.505C45.9218 77.1549 51.0261 88.06 58.2138 88.5932C65.4015 89.1264 72.0751 78.8756 72.9972 66.4438C73.5311 59.2464 72.0724 52.3398 68.9272 47.5012ZM66.2925 71.2097C66.4456 72.0982 66.1469 73.1726 65.2433 73.5442C64.7915 73.73 64.3397 73.9158 63.9041 73.8834C63.4685 73.8511 63.049 73.6007 62.6296 73.3503C60.7826 71.6782 57.951 71.4681 55.8775 72.8494C54.9577 73.4391 54.0865 73.3745 53.2638 72.6556C52.4411 71.9366 52.288 71.0481 52.5705 70.1918C53.6197 67.8573 52.9426 65.1755 50.8778 63.4872C50.0551 62.7682 49.902 61.8797 50.1845 61.0234C50.4671 60.1672 51.3868 59.5775 52.4759 59.6583C55.0896 59.8522 57.3809 58.487 58.2123 56.1364C58.4948 55.2801 59.4146 54.6904 60.5036 54.7712C61.5927 54.852 62.1976 55.5548 62.5685 56.4595C63.2617 58.9232 65.3266 60.6115 67.7225 60.7893C68.5937 60.8539 69.4164 61.5728 69.7873 62.4775C69.9404 63.3661 69.6417 64.4405 68.7381 64.812C66.6646 66.1933 65.5992 68.7459 66.2925 71.2097Z" fill="#0CB2F4"/>
</svg>
