<svg width="115" height="114" viewBox="0 0 115 114" fill="none" xmlns="http://www.w3.org/2000/svg">
<circle cx="56.8039" cy="57.3101" r="30.2886" transform="rotate(16.677 56.8039 57.3101)" fill="#10185A"/>
<path d="M49.4656 29.1329C48.3986 32.6944 53.3363 38.2831 61.9143 40.8529C70.4923 43.4227 77.4802 41.4066 78.7564 37.9078C78.9447 37.2793 79.2794 36.9229 79.8234 36.6293C76.1829 32.799 71.4545 29.5561 65.8056 27.8638C60.1566 26.1715 54.424 26.2806 49.2145 27.6879C49.5701 28.0227 49.5911 28.7139 49.4656 29.1329Z" fill="#FDAEEF"/>
<path d="M38.7755 57.2082C41.035 49.6661 44.9891 43.3166 49.7802 39.5009C46.4326 36.215 44.5286 32.6767 44.9052 29.1366C37.0595 32.4938 30.4274 39.4109 27.7286 48.4195C23.7118 61.8276 29.3819 75.6264 40.4498 82.8232C36.5372 76.8567 35.763 67.2643 38.7755 57.2082Z" fill="#FDAEEF"/>
<path d="M82.6279 40.2093C81.2052 43.436 77.6067 45.5542 72.8574 46.1861C74.6987 52.217 74.5105 59.6947 72.3138 67.0273C69.3013 77.0834 63.3805 84.6701 56.7692 87.7122C69.971 87.786 82.2938 79.3775 86.3106 65.9694C89.0094 56.9608 87.2727 47.5367 82.6279 40.2093Z" fill="#FDAEEF"/>
<path d="M68.2306 46.3995C65.7409 46.3385 63.1675 45.7959 60.6569 45.0438C57.937 44.229 55.7611 43.1205 53.5852 42.0121C48.9824 45.1993 45.091 51.3392 43.0199 58.2528C39.3797 70.4039 42.0161 82.1523 48.9203 84.2207C55.8246 86.2891 64.5489 77.7157 68.1263 65.7741C70.1975 58.8605 70.2601 51.8019 68.2306 46.3995ZM60.5527 68.9845C60.5108 69.8852 59.9878 70.87 59.0254 71.0383C58.5442 71.1225 58.063 71.2066 57.6446 71.0813C57.2261 70.9559 56.8704 70.6211 56.5148 70.2862C55.0711 68.2556 52.3512 67.4408 50.0289 68.3432C49.0038 68.721 48.1669 68.4703 47.5183 67.5911C46.8697 66.7118 46.9115 65.8112 47.3718 65.0358C48.899 62.982 48.8153 60.2173 47.1624 58.124C46.5138 57.2448 46.5557 56.3441 47.0159 55.5688C47.4762 54.7934 48.5014 54.4156 49.5475 54.729C52.0581 55.4811 54.5897 54.6414 55.9077 52.5249C56.368 51.7496 57.3931 51.3718 58.4392 51.6852C59.4853 51.9986 59.9247 52.8151 60.0921 53.7785C60.2386 56.3337 61.8915 58.427 64.1929 59.1164C65.0298 59.3672 65.6784 60.2464 65.8458 61.2097C65.8039 62.1104 65.2809 63.0953 64.3185 63.2636C61.9962 64.166 60.4062 66.4293 60.5527 68.9845Z" fill="#FDAEEF"/>
</svg>
