<svg width="115" height="114" viewBox="0 0 115 114" fill="none" xmlns="http://www.w3.org/2000/svg">
<circle cx="56.8039" cy="57.3102" r="30.2886" transform="rotate(16.677 56.8039 57.3102)" fill="#10185A"/>
<path d="M49.4656 29.133C48.3986 32.6945 53.3363 38.2832 61.9143 40.853C70.4923 43.4228 77.4802 41.4067 78.7564 37.9079C78.9447 37.2793 79.2794 36.923 79.8234 36.6294C76.1829 32.7991 71.4545 29.5562 65.8056 27.8639C60.1566 26.1716 54.424 26.2806 49.2145 27.6879C49.5701 28.0228 49.5911 28.714 49.4656 29.133Z" fill="#FFBB33"/>
<path d="M38.7755 57.2082C41.035 49.6662 44.9891 43.3167 49.7802 39.501C46.4326 36.2151 44.5286 32.6768 44.9052 29.1367C37.0595 32.4939 30.4274 39.4109 27.7286 48.4195C23.7118 61.8277 29.3819 75.6264 40.4498 82.8233C36.5372 76.8568 35.763 67.2644 38.7755 57.2082Z" fill="#FFBB33"/>
<path d="M82.6279 40.2093C81.2052 43.436 77.6067 45.5542 72.8574 46.1862C74.6987 52.2171 74.5105 59.6947 72.3138 67.0273C69.3013 77.0834 63.3805 84.6702 56.7692 87.7123C69.971 87.7861 82.2938 79.3776 86.3106 65.9694C89.0094 56.9608 87.2727 47.5367 82.6279 40.2093Z" fill="#FFBB33"/>
<path d="M68.2306 46.3996C65.7409 46.3386 63.1675 45.796 60.6569 45.0439C57.937 44.229 55.7611 43.1206 53.5852 42.0121C48.9824 45.1993 45.091 51.3393 43.0199 58.2529C39.3797 70.404 42.0161 82.1524 48.9203 84.2208C55.8246 86.2891 64.5489 77.7158 68.1263 65.7742C70.1975 58.8606 70.2601 51.802 68.2306 46.3996ZM60.5527 68.9846C60.5108 69.8853 59.9878 70.8701 59.0254 71.0384C58.5442 71.1226 58.063 71.2067 57.6446 71.0813C57.2261 70.956 56.8704 70.6211 56.5148 70.2863C55.0711 68.2557 52.3512 67.4409 50.0289 68.3433C49.0038 68.7211 48.1669 68.4704 47.5183 67.5911C46.8697 66.7119 46.9115 65.8112 47.3718 65.0359C48.899 62.9821 48.8153 60.2174 47.1624 58.1241C46.5138 57.2448 46.5557 56.3442 47.0159 55.5688C47.4762 54.7935 48.5014 54.4157 49.5475 54.7291C52.0581 55.4812 54.5897 54.6415 55.9077 52.525C56.368 51.7497 57.3931 51.3719 58.4392 51.6852C59.4853 51.9986 59.9247 52.8152 60.0921 53.7785C60.2386 56.3338 61.8915 58.4271 64.1929 59.1165C65.0298 59.3672 65.6784 60.2464 65.8458 61.2098C65.8039 62.1105 65.2809 63.0953 64.3185 63.2636C61.9962 64.166 60.4062 66.4294 60.5527 68.9846Z" fill="#FFBB33"/>
</svg>
