<svg width="87" height="86" viewBox="0 0 87 86" fill="none" xmlns="http://www.w3.org/2000/svg">
<circle cx="42.7393" cy="43.1933" r="30.2886" transform="rotate(41.1792 42.7393 43.1933)" fill="#F90047"/>
<path d="M47.7477 14.5102C45.2998 17.3085 47.475 24.4417 54.2148 30.3376C60.9546 36.2335 68.1493 37.2971 70.7616 34.6426C71.1936 34.1487 71.646 33.9633 72.2627 33.9217C70.5386 28.9266 67.581 24.0147 63.1426 20.132C58.7042 16.2493 53.4426 13.9711 48.1185 13.0911C48.3033 13.5433 48.0357 14.181 47.7477 14.5102Z" fill="#10185A"/>
<path d="M26.3768 35.6237C31.5606 29.6978 37.792 25.5601 43.7341 24.0749C42.0507 19.6966 41.7857 15.6873 43.5964 12.6222C35.065 12.4233 26.1614 15.9669 19.9696 23.045C10.7538 33.5798 10.1906 48.4874 17.277 59.6263C16.1913 52.5745 19.4649 43.5248 26.3768 35.6237Z" fill="#10185A"/>
<path d="M73.33 38.3424C70.6973 40.6885 66.5443 41.1235 61.9606 39.7289C61.1349 45.9803 57.8625 52.7066 52.8226 58.4678C45.9108 66.3689 37.3768 70.8169 30.0992 70.8432C42.0815 76.3854 56.7818 73.8448 65.9976 63.31C72.1895 56.2319 74.5176 46.9362 73.33 38.3424Z" fill="#10185A"/>
<path d="M57.6619 38.0042C55.4217 36.9162 53.3051 35.3552 51.3325 33.6295C49.1955 31.7601 47.6752 29.8491 46.155 27.938C40.6449 28.9293 34.5575 32.9025 29.8057 38.3345C21.4539 47.8817 18.9804 59.6655 24.4051 64.4109C29.8298 69.1564 41.3241 64.9734 49.5319 55.5908C54.2837 50.1588 57.2682 43.7618 57.6619 38.0042ZM41.3088 55.3711C40.8972 56.1733 40.0128 56.8526 39.0673 56.6066C38.5945 56.4836 38.1217 56.3606 37.793 56.073C37.4642 55.7854 37.2794 55.3331 37.0947 54.8809C36.6232 52.4345 34.4862 50.565 31.9987 50.423C30.9092 50.3417 30.2516 49.7664 30.0261 48.6974C29.8005 47.6284 30.2121 46.8262 30.9525 46.3115C33.194 45.0761 34.2644 42.5256 33.6286 39.9353C33.403 38.8663 33.8146 38.0641 34.555 37.5494C35.2954 37.0348 36.3849 37.1162 37.2068 37.8352C39.1794 39.5608 41.8313 39.8466 43.9084 38.4674C44.6487 37.9527 45.7383 38.0341 46.5602 38.7531C47.3821 39.4722 47.4433 40.3974 47.1961 41.3434C46.2696 43.7293 46.9055 46.3196 48.7138 47.9014C49.3713 48.4766 49.5968 49.5456 49.3496 50.4917C48.938 51.2939 48.0537 51.9731 47.1081 51.7271C44.6207 51.5852 42.2352 52.9852 41.3088 55.3711Z" fill="#10185A"/>
</svg>
